<svg id="f65c7a40-1677-4fb4-9d0f-480577956d73" data-name="Layer 1" xmlns="http://www.w3.org/2000/svg" viewBox="0 0 1051.41 1037.75">
  <title>pentagram</title>
  <g>
    <path d="M118,443.73c-.55,0-.55,0-.55-.54H92.9c1.09.54,1.09,1.09-1.09.54h-1.1l-.54-.54H36.61v1.64H34.43v-1.64H27.32v1.64c-1.64,0-1.64-1.1-1.09-1.64H0L59,464.5a3.28,3.28,0,0,0,.55-2.19c2.18,2.19,1.09,2.19,4.37,1.1a3.2,3.2,0,0,1-1.1,2.73l39.9,14.21c1.64-2.19,3.82-4.37,2.73-6.56,3.82,2.19,2.73,5.46,0,7.65l8.74,3.28a30.42,30.42,0,0,1,9.29-1.64,7.35,7.35,0,0,1-3.28,3.83l8.2,2.73h0l39.89,14.21c1.1-.55,1.64,0,2.74,1.09l6.55,2.18a4.17,4.17,0,0,1-1.09-2.73c2.19-.54,2.19,1.64,2.19,3.28l19.12,6.56c-.54,7.1-.54,14.21-.54,20.76a145.06,145.06,0,0,0,.54,15.31v.54a88.62,88.62,0,0,0,1.1,12H200c0,1.64-.55,2.74-1.09,2.74.54,4.37,1.09,8.19,1.63,12.57.55-.55,1.1-.55.55,2.18h-.55a333.3,333.3,0,0,0,14.21,61.21c0-1.1,1.1-.55,1.1,0,1.09-.55,1.09-2.74,3.27-2.19v3.28c-2.18.55-3.27-.55-4.37-1.09a208.39,208.39,0,0,0,9.84,25.68l-34.43,28.42a2.61,2.61,0,0,1,0,2.18c-1.09,0-1.09-.54-1.09-1.09l-35.52,29.51h0l-54.1,44.81c2.18,0,3.28,1.09,3.28,3.28-2.19,0-3.83-1.09-3.28-3.28l-36.62,30.6L67.22,800l-.55-.54.55.54,46.45-16.94h0l3.27-1.09c-.54-.55,0-.55.55,0l98.91-36.07c-2.18-1.64,1.1-4.37,1.64-5.46,3.28,1.09,0,3.82-1.09,4.92l43.72-15.85a297.46,297.46,0,0,0,20.76,25.14v-.55c2.19.55,3.83,0,3.28-2.19,3.28.55,1.64,3.83-.54,6,2.73,3.28,6,6,8.74,9.29a351.06,351.06,0,0,0,47,39.35V805.5c2.18,0,1.63,3.28,4.37,2.18v2.19a258.76,258.76,0,0,0,29.51,16.94l.54-.55c.55,0,1.1,1.1,1.1,1.64a13.85,13.85,0,0,1,3.82,2.19L364,916.43s.55.55,0,2.19h-.55l-13.11,73.77c2.18,0,4.37-1.09,4.37,1.09,1.09,3.83-2.19,1.64-2.19,0-2.73-.54.55,6-3.27,4.92l-7.11,39.35,27.32-48.09c-.54-.55.55-1.64,1.1-1.64l27.87-48.09a1.89,1.89,0,0,1,.54-1.09l4.92-8.2c-4.37,0-3.28-3.83-4.37-4.37,1.64-2.74,4.92.54,4.92,3.82L412,917c-2.19-.55-3.28-7.11,1.64-5.47,1.09,1.64-2.73,3.28-1.09,4.37l3.27-5.46h0L447,855.77c5.47,1.1,10.39,2.19,15.85,3.28-1.09-1.64-3.28-2.18-1.09-5.46-.55,4.37,7.65,2.18,4.37,3.28.55,1.09,2.19,1.09,2.19,2.73a321.59,321.59,0,0,0,56.28,4.92c6,0,12,0,17.49-.55h0c7.1-.55,13.66-1.09,20.77-1.64v-1.64h2.18v1.64a23.42,23.42,0,0,0,6-1.09c.55-.55,1.1-1.1,1.1,0,9.83-1.64,20.21-3.28,30.05-5.47l106,182-6.56-35H700v-2.18h1.64l-30.6-170.5a302.05,302.05,0,0,0,29-16.4c0-.54,1.09-1.09,1.64-1.09a313.23,313.23,0,0,0,55.74-44.81,49.8,49.8,0,0,0,4.92-5.46c-.55-.55.54-1.1,1.09-1.1a358.7,358.7,0,0,0,26.23-31.15L988,802.76l-86.34-72.13v2.19h-2.19c-.55-1.64,0-2.74,1.09-3.28l-47-39.35h-1.1V689.1l-26.23-21.86A318.69,318.69,0,0,0,852,568.88c-1.64,1.63-.55.54,0,0a277.77,277.77,0,0,0,1.64-30.06c-.55-.55-.55-.55-1.64-.55,0-1.09.54-1.09,1.64-1.09v-1.09c0-7.11,0-14.21-.55-20.77l60.11-21.86v-1.09c1.1,0,1.1,0,1.64.55l109.3-39.9c0-1.09,1.09-1.64,1.64-.54l25.68-9.29H941a7.83,7.83,0,0,1,1.1,3.82c-2.74.55-3.28-1.64-3.28-3.82H894.57a1.82,1.82,0,0,1-3.28,0H840.47c-2.73-8.75-5.46-16.94-8.74-25.14a4.16,4.16,0,0,1-2.73,1.09c0-2.73-2.74-2.73-3.28-4.37,1.09-1.09,3.28,2.19,6,2.19-2.73-7.11-5.47-13.67-8.75-20.77,0,1.64-2.18,3.83-3.82,3.28v-3.28c1.64,1.09,2.73,1.09,3.28-1.09h0c-1.09-2.73-2.73-5.47-3.83-8.2-1.09,0-1.09-1.09-.54-1.09-.55-.55-.55-1.64-1.1-2.19h-2.18v-2.18h1.09a336.3,336.3,0,0,0-52.46-72.68l28.42-49.19c-1.1-.54-1.64-1.64-1.64-3.28a4.27,4.27,0,0,1,2.18,2.19l12-20.77v-.54l61.21-104.92c-1.09-1.1,0-1.1.55-1.1l3.27-4.92-55.74,47h0l-25.13,21.31c0,1.64-.55,3.28-2.19,2.19l-37.16,31.69c.55,0,1.09.55.55,2.74-1.64-.55-1.64-1.64-1.1-2.74l-9.83,8.2c4.92.55.54,2.73.54,5.47-2.18,0-1.09-3.28-1.09-5.47l-29.51,24.59a328.22,328.22,0,0,0-134.43-51.37c3.28,2.74-1.64,7.11,0,0l-11.48-1.63L553.57,153c-.54-.54-.54-1.09-.54-2.18h.54l-3.27-17.49h-.55c0-1.09,0-1.64.55-2.19L539.37,70h0c-1.64-.55-1.1-1.09,0-1.64l-1.1-6.56c-.54-.55-1.09-1.64-2.18-2.18.54-1.1,1.09-1.1,1.64-1.1L527.34,0,510.4,96.18h0L491.28,207.66a32.41,32.41,0,0,0-7.11,1.09v.55c-.54,0-.54,0-1.09-.55-1.64,0-3.83.55-5.46.55a2.4,2.4,0,0,1-.55,1.64c-.55,0-1.09-.55-1.09-1.64a5,5,0,0,0-2.74.54,1,1,0,0,1-1.64,0c-8.19,1.64-16.39,3.28-24.59,5.47v.55h-1.64c-4.91,1.09-9.83,2.73-14.75,3.82,0,1.09-1.09,1.09-1.64.55l-9.84,3.28c-.54,1.09-1.09,1.64-1.09,2.73-.55-.55-1.09-1.09-1.09-1.64-6.56,2.19-13.12,4.92-19.68,7.65,0,2.19-.54,3.83-2.73,4.37a27,27,0,0,0-1.64-2.73c-9.83,4.37-19.12,9.29-29,14.75.55,0,.55.55,0,2.19-1.64,0-1.64-1.09-1.09-1.64l-3.28,1.64c2.18.55,0,3.83-.55,4.37-2.18,0-1.09-2.73-.55-3.82-4.91,3.28-10.38,6-15.3,9.83l-16.39-13.66h0l-65.58-55.19h-.54v-.55l-2.74-2.18c-.54.54-1.09.54-3.27.54a2.81,2.81,0,0,1,1.09-2.18l-6-4.92h0c-1.1,0-1.1-.55-1.1-1.1l-6.55-5.46c-.55.55-.55,1.09-.55,2.19-1.64,0-1.64-1.64-1.09-2.74l-59.57-50.27,68.31,117.49h0l1.09,2.19h0l36.07,62.29c-9.29,9.84-17.49,19.68-25.68,30.06a5.37,5.37,0,0,1,1.64,4.37,8,8,0,0,1-3.28-2.73c-5.47,7.65-10.93,15.3-15.85,23.5.55,0,.55.54.55,2.18a1.93,1.93,0,0,1-1.1-.54A300.62,300.62,0,0,0,218,414.22a3.37,3.37,0,0,1-.54,3.83c-.55,0-.55,0-.55-.55-1.64,4.38-3.28,9.29-4.92,13.67v2.73c-.55,0-.55,0-.55-.55q-.81,2.46-1.64,4.92h0c-.54,1.09-.54,2.19-1.09,3.28L118,443.73Zm-35.52,16.4c-3.83-1.64,4.37-3.28,0,0Zm-2.74-9.29ZM69.4,443.73c-.54.55,1.09-.54,0,0Zm-36.61,8.2c0-2.18,1.64-2.18,1.09-4.37,1.64,1.09,2.19,3.28,4.37,3.28C36.61,453,35.52,449.75,32.79,451.93ZM47.54,459c0-2.74,1.1-3.83,3.28-3.28C51.37,457.94,50.28,459,47.54,459Zm15.3-4.92c-1.09,0-1.09-1.64-1.09-2.19-1.09,0-1.09.55-1.09,1.09-3.83-2.18,2.18-3.82,1.09-7.1,3.83,1.64,3.28,1.09,6,3.28-1.09,3.28-3.28-1.09-4.37-1.09C59,449.2,63.94,451.38,62.84,454.12Zm3.28,0c1.64-3.28,4.37,2.18,4.37,4.37C66.67,459.58,68.86,454.66,66.12,454.12ZM79.78,459c-3.27-.55,1.1-4.92,0,0Zm1.1,6.55c-3.28-2.18,2.18-4.92,4.37-4.37C85.25,464,82,464,80.88,465.59Zm23.5-11.47c-3.83,0,1.09-4.92,0,0Zm-1.64,11.47c-3.28-.54,1.09-2.73,0-4.37C107.11,462.31,103.83,464,102.74,465.59ZM353,1011c-3.28-.55,1.09-4.92,0,0Zm16.39-119.68c.55-1.09-.54,0,0,0ZM359,953c3.28-3.82,3.83,3.83,0,0Zm-2.18,36.07c-.55.55.54-1.09,0,0Zm3.27,9.29c-3.82-1.64,1.1-6,0,0ZM359,983.1c-.55-1.64,1.09-2.19,1.09-3.28C362.31,979.27,361.76,985.29,359,983.1Zm3.28-27.32c1.64.54,1.09,2.73,1.09,4.37C360.67,960.15,360.67,956.87,362.31,955.78Zm2.19,35.52c-.55.54,1.09-.55,0,0Zm2.18-35.52c1.09-1.1,0,.54,0,0Zm1.64,5.46Zm2.19-62.3c-3.83,0,1.09-4.37,0,0Zm0,49.73Zm8.19-65.57c3.83,3.82-2.18,6.55,0,0ZM376,937.2c-2.18.54-1.64-5.47,1.09-3.28v2.18C376.52,935.56,376,936.65,376,937.2Zm0,13.66c1.09-.55-.54.54,0,0Zm-1.09-43.72c-1.64-3.82,3.82-1.09,2.18-4.37C379.8,902.77,377.61,908.23,374.88,907.14Zm2.73-8.74c-1.64-1.64-4.37-1.64-3.82-4.92,1.64-1.09,4.37-1.09,3.27-4.37C382,890.2,375.43,894,377.61,898.4Zm-3.82.54c-.55.55,1.09-.54,0,0Zm0,6ZM376,871.62c2.19-.55,2.19,6.56-1.09,4.37C374.88,873.81,376.52,873.81,376,871.62Zm-2.18,7.65c-.55.55,1.09-.55,0,0Zm0,12c-3.83-2.18,4.37-3.28,0,0Zm1.09,26.23v3.28h-2.19C372.15,918.62,372.69,917.52,374.88,917.52Zm-1.09,25.14c4.37,4.37-4.38,6,0,0Zm-2.19-56.29Zm1.09,78.7c-2.73-4.38,3.83,2.73,0,0Zm0,12.57c-.54-2.74,1.64-2.19,3.28-2.19A3.14,3.14,0,0,1,372.69,977.64Zm3.28-6c-.54.55,1.09-.54,0,0Zm0-4.37c0-2.18,1.64-2.18,1.09-4.37C379.25,962.33,379.25,968.89,376,967.25Zm3.83-16.39c-3.83,0,1.09-4.92,0,0Zm0-26.23c-.55.54.54-1.1,0,0Zm323.51,93.44c1.09-1.09-.55,0,0,0ZM972.17,796.75c-3.82-1.64,1.09-6.55,0,0Zm-17.49-15.3c-3.27,0,1.1-4.92,0,0Zm-54.1-37.7c-.54,0,.55-1.1,0,0Zm1.1,6.55c-3.28,0,1.09-4.91,0,0Zm87.43-302.74c4.37,3.28-3.28,3.82,0,0Zm-13.66,6.56h-3.28C970.53,450.84,977.09,450.84,975.45,454.12ZM964,462.31c-3.82-1.64,4.38-2.73,0,0Zm-11.47,4.38c2.18,1.09,3.28,4.91-1.09,4.37C950.86,468.87,952,468.32,952.5,466.69Zm-4.37-23c3.28-1.09,2.18,2.74,2.18,4.38C948.13,448.11,947.58,446.47,948.13,443.73Zm-3.83,37.16c-2.73.55-2.18-1.64-2.18-3.28C943.75,477.61,944.3,478.71,944.3,480.89ZM843.2,153.56c-3.82-.55,1.1-4.92,0,0Zm-6,19.67c-2.73-4.37,3.83,2.73,0,0ZM829,178.7h2.18v2.18H829ZM818.61,188c-3.28,0,1.1-4.92,0,0Zm-11.47,38.25c-3.28-1.64,1.09-6.56,0,0Zm-576-50.82c-3.83-.55,1.09-4.92,0,0Zm-27.87-18.58H201.1v-2.19h2.19Zm12.57,3.28c-3.28,0,1.09-4.38,0,0Zm8.19,25.68c-3.28-.55,1.1-4.92,0,0Zm7.11-4.92c-3.83-1.09,1.09-6,0,0Zm5.46,25.69c-2.73-3.83,3.83,2.73,0,0Zm9.29,6.55c-.54.55.55-.54,0,0Zm0-5.46c-.54.55.55-1.09,0,0ZM247,233.89c-.54.55,1.1-.55,0,0Zm0-32.24c-2.73,0-.54-3.83,0-4.37C249.74,197.28,247.55,201.1,247,201.65Zm3.28,12.57c-3.28,0,1.1-4.38,0,0Zm0,4.91c1.1-.54,0,.55,0,0Zm0,12.57c-3.82-1.64,3.83-3.28,0,0Zm2.74,4.92c-.55,0,.54-1.09,0,0Zm1.09-4.92c-1.64.55-1.64-6,1.09-3.28C254.66,227.88,254.11,231.7,254.11,231.7ZM115.85,457.4ZM112,445.92c3.82,2.73-1.1,7.65,0,0Zm-5.47,2.73c-.54.55.55-1.09,0,0Zm2.19,18c-1.1,0-1.1.54-1.1,1.09-2.18.55-1.63-5.47,1.1-3.28Zm0-15.85c-.55.54.54-1.09,0,0Zm1.09-4.92c-3.28,0,1.09-4.37,0,0ZM112,466.69c1.09,0,1.09,2.18,1.09,3.27-1.09,0-2.19,0-2.19,1.1C108.2,471.06,112.57,468.33,112,466.69Zm-1.1,16.39c0-2.19,1.64-2.19,1.1-4.37C114.21,478.16,114.21,484.72,110.93,483.08Zm6-10.38c.55-.55.55-.55,1.1-.55C117.49,472.15,112.57,475.43,116.94,472.7Zm6.56,1.09c1.1-.55,0,.55,0,0Zm4.92,4.37Zm1.09,3.83c1.1-2.19,2.19,0,3.28,0C132.25,484.17,130.61,482,129.51,482Zm4.38-3.83c1.09-.54,0,.55,0,0Zm1.63,9.29c.55-2.18.55-4.92,3.28-4.37C136.62,483.63,138.8,488.54,135.52,487.45Zm7.66,7.11c-.55.54,1.09-.55,0,0Zm6,1.09c-3.83-1.64,4.37-2.73,0,0Zm-1.1-2.19c.55-1.09-.54.55,0,0Zm10.39-8.19a6.86,6.86,0,0,1-1.1,1.64c0-.55,1.1-2.74,1.64-2.74A1.93,1.93,0,0,0,158.48,485.27Zm14.75,15.3c-2.73-.55,0-4.37,2.19-3.28C175.42,498.38,173.78,498.93,173.23,500.57Zm-1.09-6c-4.37-3.28,3.28-3.83,0,0Zm9.29,6c-1.64.54-2.19-1.1-3.28-1.1C177.6,496.74,183.07,497.29,181.43,500.57Zm9.29,7.65c-2.19-.55,0-4.92-3.28-4.37C188,501.11,192.36,504.94,190.72,508.22Zm13.66,14.21c-.55,2.18-3.28,3.27-6,3.27C198.37,522.43,202.19,519.69,204.38,522.43Zm-1.09-6c-3.83-1.63,4.37-2.73,0,0Zm-3.28,29c-3.83-1.64,4.37-2.73,0,0Zm2.18,10.38c-3.27-.55,1.1-4.92,0,0Zm0,1.09c3.28-.54,3.83,1.64,3.28,4.38C203.83,560.13,201.1,560.68,202.19,556.85Zm1.1,19.68c-3.28-.55,1.09-4.92,0,0Zm2.18,25.13c1.1-.54-.54.55,0,0Zm0-14.75c4.37,3.82-4.37,5.46,0,0Zm3.83,12.57c-3.83-1.64,4.37-2.73,0,0Zm6.56,33.33c-.55.55,1.09-.54,0,0Zm4.91,3.28c-.54.55.55-.54,0,0Zm4.38,29c-4.38-2.73,3.82-1.64,0,0Zm0,24.05c3.27-3.83,2.73,6,0,0Zm0-12.57c-.55.55.54-.55,0,0Zm-9.29,23c-3.28,0,1.09-4.37,0,0Zm-14.76,3.83c-3.28-3.83,3.28,3.28,0,0Zm-8.2-1.1c-3.82-1.64,4.38-3.27,0,0Zm-1.09,12.57c.55-1.09-.55.55,0,0Zm-2.18,4.37Zm-7.11-11.47c-3.82-1.64,4.37-2.73,0,0Zm.55,13.11c0-.54-.55-.54,0,0h-.55C182.52,720.25,182.52,720.25,183.07,720.79Zm-4.92-1.63c2.19-.55,1.64,5.46-1.09,3.27C176.51,720.79,177.6,720.79,178.15,719.16Zm-7.1-4.38c-.55.55.54-1.09,0,0ZM170,729.54Zm-27.87,23c-3.82-1.64,3.83-3.28,0,0ZM109.84,776c-2.73-3.83,3.83,2.73,0,0Zm-3.28-7.11h2.19v2.19h-2.19Zm-2.18,6c1.64.54,1.64,2.18,3.27,2.18C107.11,779.81,103.28,777.08,104.38,774.9Zm3.27,11.47c-.54.55.55-1.09,0,0Zm0-3.82c.55-1.64,2.74-2.19,4.38-2.19C110.93,782.55,109.84,784.73,107.65,782.55Zm5.47-13.67c-1.09-3.82,4.37-1.64,4.37-4.37C120.77,766.15,115.31,768.88,113.12,768.88Zm7.1,2.19c-3.28,0,1.1-4.92,0,0Zm3.28-5.46c1.1-1.1,0,.54,0,0Zm1.64,9.29c-.54,0,.55-1.1,0,0Zm-1.64-13.12v-4.37c2.19-.55,3.28.54,4.37,1.09C127.33,760.14,126.78,762.33,123.5,761.78Zm8.2-7.65c1.09-1.09-.55,0,0,0ZM135.52,770Zm1.1-17.49c-.55.55.54-.55,0,0Zm2.18,15.3c-3.28-.55,1.1-4.92,0,0Zm3.28-7.1c-3.28-1.1,1.1-3.28,1.1-4.38C147,757.41,142.08,759.05,142.08,760.69Zm8.2,9.29c.55-.55-.55.54,0,0Zm3.28-1.1c-.55.55,1.09-.54,0,0Zm4.92-16.39c-.55.55.54-.55,0,0Zm2.18-14.76c-3.28,0,1.1-4.91,0,0Zm-1.09,27.87c-.55.55.55-1.09,0,0Zm1.09-9.29c.55-1.09-.54.55,0,0Zm7.11,6.56Zm1.09-8.74c-.55,0,.55-1.09,0,0Zm3.28-6c.54-.55-.55.54,0,0Zm7.1,11.47c-3.82,0,1.1-4.91,0,0Zm0-7.1c-3.82,0,1.1-4.37,0,0Zm10.39-10.38c3.82,3.28-3.28,6,0,0Zm14.75-6.56c2.73.55,2.73,3.82,4.37,4.37C208.75,741.56,203.29,738.83,204.38,735.55Zm8.2,4.37c-.55.55.54-.55,0,0Zm4.37-8.2c-1.09,0-.55-1.09,0-1.09-1.64-1.64-3.28-2.19-1.09-4.37C219.13,726.26,218.59,730.63,217,731.72Zm-37.71,7.65v.55c-.54,0-.54,0-.54-.55l-15.85,6,33.33-27.87c-.54.54-1.64-.55-2.73-.55,1.09-2.19,2.19,0,3.28,0a.54.54,0,0,1-.55.55l37.71-31.15c4.92,9.29,10.38,18.58,15.85,27.32Zm53-71c-3.83,0,1.09-4.37,0,0Zm1.09,7.11c-3.82-1.64,4.37-2.74,0,0Zm2.19,10.38ZM238.81,670c-3.83-2.18,3.82-3.82,0,0Zm-12.57,68.86V741c-2.73-1.64-5.47-3.28-4.37-8.19,3.28,0,1.64,5.46,6,4.37C227.88,738.83,226.79,738.83,226.24,738.83Zm3.28-16.94Zm2.73,2.18c-.55.55.55-1.09,0,0Zm7.65,6.56c0,.55,1.09-.55,0,0Zm6-12.57c-3.28,0,1.09-4.92,0,0Zm0,13.66c-.54.55.55-.54,0,0Zm1.09-3.28c-.54.55,1.1-.54,0,0Zm1.1-6.55c.54-1.64,2.73-2.19,4.37-2.19C253,722.43,249.74,723,248.1,721.89Zm10.38,5.46c-.55.55,1.09-.54,0,0Zm1.09-3.28c-.54.55,1.1-1.09,0,0Zm17.49,24Zm15.85,17.48c1.09-1.09,0,.55,0,0Zm8.2,3.28c-.55.55,1.09-.54,0,0Zm16.39,11.48Zm9.29,11.48c.55-.55-.55.54,0,0Zm19.67,15.3c-4.37-2.19,3.28-3.83,0,0Zm8.75,2.18c0,.55,1.09-1.09,0,0Zm9.29,5.47c1.09-.55-.55.54,0,0Zm-4.38-4.37v1.09C359,811,359,810.42,359,809.87a191.28,191.28,0,0,1-21.86-14.76h0c-5.46-3.82-10.93-8.19-16.39-12.56h0c-7.65-6.56-14.76-13.12-21.86-20.22a300.39,300.39,0,0,1-30.06-35L282,722.43c0-1.09,1.09-1.64,1.64-.54l69.95-25.69c.54-1.09,1.64-1.64,3.28-1.64h0l7.65-2.73c1.09-.55,1.64-1.64,1.64-3.28a3.33,3.33,0,0,1,.54,2.19l37.16-13.66,3.83-22.41-10.39,3.83v2.18c-1.09-.54-1.09-1.09-1.09-1.64l-4.37,1.64h0l-34.43,12.57h0L353,674.89v.55h-1.64l-18,6.55c0,.55.54,1.1,1.64,1.64-.55,2.19-2.74,1.1-3.28-.54l-7.11,2.73c.55,1.64-.54,4.37,0,6-3.82-1.09-1.09-2.73-1.09-6L259,709.32a4.3,4.3,0,0,1,0,2.73c-1.64-.55-1.64-2.19-.55-2.73-5.46-8.2-9.84-16.4-14.75-25.14-1.1,0-1.1-1.09-.55-1.64-.55-1.09-1.09-2.18-1.64-3.28l5.46-4.92c-1.63-.54,1.1-3.82.55-.54l36.61-30.6c-.54-1.1,1.1-2.74,1.1-1.1l12.57-10.93c-1.1-1.09,1.09-1.64,1.64-1.09l73.22-61.2c-1.09-1.64,1.1-2.19,1.64-1.1l3.83-3.28c-.55,0-1.1-1.09,0-2.73.54.55,1.09,1.09,1.09,1.64l7.65-6c-2.73-.55-3.28-5.46-1.64-6.56,1.09,2.19.55,3.28,2.19,6.56l15.85-13.12A136.48,136.48,0,0,0,405.48,559c0-.55.55-.55,1.09-1.09,2.19,1.64.55,2.73-.54,2.73.54,2.18,1.09,4.92,1.64,7.1l-18.58-6.55-2.74,2.18a22.59,22.59,0,0,1,3.83,6,7.48,7.48,0,0,1-4.37-5.46l-13.12,10.93v1.64l4.92,1.64c-1.09-1.64-1.64-3.28,0-3.83h2.19v4.92l6,2.18c3.28-2.73,6,.55,8.2,2.74l23.49,8.74c1.1,2.19,2.74,4.92,3.83,7.1h0c.55.55.55,1.1,1.09,1.64L401.11,721.89c.55-.55,1.64-1.1,1.09,1.64a1.92,1.92,0,0,1-1.09-.55l-8.74,49.18c1.09,2.19,1.64,4.37,3.27,7.65-2.73-1.64-3.27-1.64-4.37-1.64l-1.64,10.39h.55c0,.54-.55.54-.55,1.09l-4.37,24c0,.55,0,.55.55,1.1a.54.54,0,0,1-.55-.55l-1.09,6.56C374.33,818.61,367.23,814.79,360.12,810.42Zm-89.07-84.16c-3.28,0,1.09-4.92,0,0Zm3.82-8.2c1.64-.54.55,5.47-2.18,4.37C271.05,719.15,274.33,719.7,274.87,718.06Zm2.19-12.57Zm8.2-4.37c-.55,0,.54-1.09,0,0Zm4.37,2.19c-.55.54,1.09-1.1,0,0Zm18.58-2.19c-3.28-1.64,1.09-6.56,0,0Zm8.2-1.64c-3.83,0,1.09-4.37,0,0Zm14.75-1.09c.55-1.09,2.19-.55,2.19-2.19C336.63,696.75,333.35,700,331.16,698.39ZM338.27,688c-3.83,0,1.09-4.38,0,0Zm0,3.82c.54-1.09-.55.55,0,0Zm6.55-1.09c-1.64,5.46-5.46,1.09,0,0Zm3.83-4.92h-2.19c-.54-2.19,0-3.83,2.19-3.28Zm1.09,8.2c-3.28-.55,1.09-4.92,0,0Zm2.19-6Zm8.19-3.28Zm3.28,2.18c-.54.55,1.1-.54,0,0Zm1.1-12.57c2.73-2.73,6,2.74,2.18,4.38C364,678.17,369.41,674.89,364.5,674.34Zm10.38,7.11c-3.28-.55,1.09-4.92,0,0Zm0-4.92c-.55.55,1.09-.55,0,0Zm8.2,6c-2.74-2.73-1.64,2.73-7.11,1.09C376.52,681.45,383.62,677.62,383.08,682.54Zm-3.28-14.21c-3.83,0,1.09-4.37,0,0Zm9.29,3.83c1.09,1.64,5.46,0,4.37,3.28-2.73-3.28-3.28,1.64-7.11,1.09C386.9,674.89,390.18,675.44,389.09,672.16Zm4.37,8.2c.55-1.1-.55,0,0,0Zm-7.11-14.21c-3.27,0,1.1-4.37,0,0ZM242.63,655.76c-.54.55.55-.54,0,0Zm2.19-1.09c4.37,1.64-.55,6.56,0,0Zm8.2,10.38c-3.28.55-3.83-1.64-3.28-4.37C252.47,660.14,252.47,662.87,253,665.05Zm0-14.75c-3.83-1.64,4.37-3.28,0,0Zm11.47-11.48c-3.82-.54,1.09-4.91,0,0Zm0,4.38Zm8.2-12.57c-.55.54.55-1.1,0,0Zm8.74-6.56A1.92,1.92,0,0,0,282,623a1.7,1.7,0,0,0,.55-1.1A1.92,1.92,0,0,0,282,623h0Zm4.92,15.85c-3.28-.55,1.09-4.92,0,0Zm4.37-7.11c-.54.55,1.1-.54,0,0Zm10.39-11.47c2.73-.55,1.63,2.18,3.27,2.18C304.38,626.25,300,623.52,301.11,621.34Zm11.47-12.57q0,4.1-3.28,3.28c-1.09-1.1-1.09-2.74-1.09-4.38C310.4,607.13,310.4,608.77,312.58,608.77Zm0-12.57c-.55,0,1.09-1.09,0,0Zm8.2,5.46Zm10.38-9.29Zm18.58-6.55c-3.28-.55,1.09-4.92,0,0Zm1.09-16.4c-.54-3.28,2.19-2.73,4.38-3.28A4.26,4.26,0,0,1,350.83,569.42Zm3.28,10.38c-2.73-3.82,3.83,2.74,0,0Zm9.29-12.56c3.83,2.73-3.82,4.37,0,0Zm2.19,4.37v-2.19h2.18v2.19ZM380.89,559c-1.09,3.82-4.92,4.37-8.2,6-.54-1.09-1.09-2.19-2.18-2.19C372.69,562.86,378.16,561.77,380.89,559ZM376,549.75c0-2.73,1.09-3.83,3.28-3.28C379.8,549.2,378.7,550.3,376,549.75Zm6,7.1c-3.28-.54,1.1-4.92,0,0Zm7.11-1.09c-.55.55.54-1.09,0,0Zm10.38-16.39c-.55.54.55-.55,0,0Zm2.19-3.28c-.55.54.54-.55,0,0Zm7.65,0a116.79,116.79,0,0,1,9.29-45.91c-.55,0-1.1-.54-2.19,0,0-1.09,1.64-1.09,2.73-1.64,0-.54.55-.54.55-1.09v-3.28h1.64c4.37-9.29,10.38-17.48,16.94-25.14,0-.54.55-1.63,1.09-1.09a116.68,116.68,0,0,1,83.07-38.25V418.6c1.09,0,1.09-.55,1.09-1.1,1.64.55,1.64,2.19,3.28,2.19h0a115.61,115.61,0,0,1,92.35,48.09c0-.55.55-1.09,1.09-1.64,2.19,1.64.55,2.73-.54,2.73a122.49,122.49,0,0,1,17.48,36.07,3,3,0,0,1,1.64,3.82l-.54-.54a118.46,118.46,0,0,1,3.82,27.87A114.45,114.45,0,0,1,638.82,564c1.64.54,1.1,4.37-1.09,3.82a110.24,110.24,0,0,1-22.4,42.63v3.28c-.55,0-1.1-.55-1.64-1.1a116.35,116.35,0,0,1-77.6,39.35,7,7,0,0,0,.54,3.28,3.15,3.15,0,0,1-3.27-3.28c-2.74,0-4.92.55-7.66.55A116.32,116.32,0,0,1,448.65,623a4.19,4.19,0,0,1-2.73,1.09c-.55-1.64.55-2.19,1.64-2.19A122.52,122.52,0,0,1,425.15,594h0c-1.64-.54-1.64-1.64-1.09-1.64a114.85,114.85,0,0,1-12.57-35.52c-.54.55-1.09.55-1.64,1.1-.54-1.1,0-2.19,1.1-3.28-.55-2.19-.55-4.37-1.1-6.56a.54.54,0,0,1-.54.55c-1.1-2.74-.55-7.65,0-10.93Zm.54-40.44c3.28,2.73-1.64,7.65,0,0Zm1.1-4.37c-4.38-2.19,3.82-3.83,0,0Zm6.55-3.83c-3.82-1.64,3.83-3.28,0,0Zm1.1-6.56c-3.28-.54,1.09-4.91,0,0Zm8.19-8.19c-3.28-.55,1.1-4.92,0,0Zm7.11-21.86c-4.37-2.73,3.82-1.64,0,0Zm11.47,0c-3.28-.55,1.1-4.92,0,0Zm8.2-8.2c-3.82,0,1.09-4.92,0,0Zm1.09-20.76c0-2.74,1.1-3.83,3.28-3.28C456.85,419.69,457.4,423,454.66,421.88Zm6.56-11.48c-2.73-3.28,3.83,3.28,0,0Zm4.92-9.29Zm8.2,3.28c-2.19,5.46-6,1.64,0,0Zm24,17.48c-3.28,0,1.09-4.91,0,0Zm3.28-2.18c-3.28-1.64,1.64-6,0,0Zm40.44-12.57c-4.37-3.28,3.82-1.64,0,0Zm13.66-9.29c-3.82-3.83,3.83-3.83,0,0Zm3.83,13.66c-.55,3.28-2.74-1.09-4.38,0C555.76,408.21,558.49,409.85,559.59,411.49Zm1.09,7.11c-2.73-3.83,3.82,2.73,0,0Zm14.75,9.29c2.74-.55,2.19,1.64,2.19,3.27A3.68,3.68,0,0,1,575.43,427.89Zm4.92-61.21h-2.18V364.5h2.18Zm2.19,10.38c.54,2.19-.55,3.28-1.1,4.38C578.17,381.44,578.71,376,582.54,377.06Zm-3.28-55.19c-3.83-.55,1.09-4.92,0,0Zm3.28,71c1.09,3.28-2.73,2.19-4.37,2.19C578.17,393.46,579.81,392.91,582.54,392.91ZM584.72,423c2.74,1.64,3.28,4.92,4.38,8.19-3.28-.54-4.38-3.27-7.11-4.37C583.08,425.15,584.72,424.61,584.72,423Zm1.1-14.76c-3.28-.54,1.09-4.92,0,0Zm7.1,21.86c-4.37-2.73,3.83-1.64,0,0Zm2.19-13.66c1.09,4.92-5.47,1.64,0,0Zm-5.47,3.28c-.54-1.64,1.09-2.19,1.09-3.28C592.92,415.86,592.37,421.33,589.64,419.69Zm2.19-12.57c-3.28-.55-4.92-5.46,0-6Zm-7.11,26.23c-3.28,0,1.1-4.92,0,0Zm-3.28-23c-3.82-1.64,4.38-2.73,0,0Zm16.95,24c2.18.55,2.73,2.19,2.18,4.38C597.29,440.45,598.93,436.63,598.39,434.44Zm13.11,11.48c3.28,2.73-4.37,4.92,0,0Zm3.28,12.57c.55,1.09,2.19,4.92,1.09,2.73C615.33,459.58,614.78,459,614.78,458.49Zm20.77,29c2.73-4.92,1.63,3.83,3.27,3.28C637.18,495.1,637.18,487.45,635.55,487.45Zm3.27,10.38c-.54.55,1.1-.54,0,0Zm2.19,6c0,.54,1.09-1.1,0,0Zm-8.74,90.71c-.55.55.54-.55,0,0Zm-8.2,24.59a3,3,0,0,1,3.28-2.19C627.89,619.7,625.71,620.79,624.07,619.15Zm0,9.29c.55-1.09-.55.55,0,0Zm-2.19-25.68Zm-2.73,33.33c-4.37-2.73,3.83-1.64,0,0Zm-7.65-15.85Zm-14.21,10.39Zm-5.46,1.09c.54-.55-.55.55,0,0Zm0,25.14c.54-.55-.55.54,0,0Zm-2.19-13.66Zm-30,9.29c-3.83,0,1.09-4.92,0,0Zm-7.11,8.19c-3.82-2.18,3.83-3.82,0,0ZM547,671.07a3,3,0,0,1,2.18,3.27C547.56,673.8,546.47,672.7,547,671.07Zm0,6.55Zm-2.74-3.28c1.1-.54-.54.55,0,0ZM542.1,688c-3.83-1.64,3.82-3.28,0,0ZM541,653.58c.54-.55-.55.54,0,0Zm1.09,6c-.55,0,.55-1.09,0,0Zm-2.19,8.74c-3.28,0,1.1-4.37,0,0Zm-2.18,8.2ZM533.9,658c-.54.55,1.09-.55,0,0Zm-9.29-3.28c4.37,3.83-3.28,3.83,0,0ZM508.76,658c.55-3.28,2.19-5.46,6-6A12.68,12.68,0,0,1,508.76,658Zm4.38,2.73ZM511,674.34c1.09-.54-.55.55,0,0Zm0,9.29c-3.28-.54,1.09-4.91,0,0Zm-2.19-30c-4.37-1.64,3.83-3.83,0,0Zm-1.09,8.2c.55-1.1-.55.54,0,0Zm-6-4.92c1.09-.55-.55.54,0,0Zm-4.37,0c-3.28,0,1.09-4.37,0,0ZM492.37,658c1.09-.55,0,.55,0,0Zm-11.48-8.74h2.19v2.18h-2.19Zm-2.18-6c2.18-.55,2.18,1.63,2.18,3.27A3.13,3.13,0,0,1,478.71,643.2Zm-7.11,9.29c-3.82-2.19,3.83-3.83,0,0ZM456.85,641v-2.19H459V641Zm0,5.46ZM432.8,617c-.54-2.73,2.19-1.63,2.19-3.27C437.72,613.69,435,617.51,432.8,617Zm1.1,3.28Zm-2.19,8.2c1.64,1.09,2.73,3.28,1.09,4.37C430.62,631.72,430.07,629.53,431.71,628.44Zm-1.64-9.29c-3.82-6,3.83-7.1,0,0Zm-3.28,23c1.1-.54-.54.55,0,0Zm0-30.05c-3.28-1.1,1.1-6,0,0Zm-3.28,43.71c-1.63,0-2.18-7.65,1.1-6C425.15,653,422.42,652.49,423.51,655.76Zm-1.09,42.63c-3.82-1.64,4.37-2.73,0,0ZM409.85,568.33c1.1,0,1.1-2.19,1.1-3.28,1.64.55,1.09,2.73,1.09,4.37h-3.28C408.21,568.33,408.76,568.33,409.85,568.33Zm1.1,7.1c-3.83-1.64,1.09-6.55,0,0Zm-2.74-90.16c0,.54,1.1-.55,0,0Zm0,47.54c-1.09,1.09-.54,4.37-3.28,3.28Q404.12,531.17,408.21,532.81Zm-3.28,6.56.55.54a.54.54,0,0,1-.55-.54h0c-.54-.55-.54-1.1-1.09-1.64C404.39,538.27,404.39,538.82,404.93,539.37Zm-1.09,16.39c-.54.55.55-1.09,0,0ZM404.93,588c-3.27-.54,1.1-4.92,0,0Zm-2.18-10.38v3.28c-2.73,0-3.83-1.1-3.28-3.28Zm-11.48,3.28c-3.28-1.64,1.1-4.92,1.1-7.11C397.28,575.43,391.27,578.17,391.27,580.9Zm2.19,2.18c-3.28,0,1.09-4.37,0,0Zm-7.11-5.46h-3.27a10.63,10.63,0,0,1,7.1-4.37C390.18,576,385.26,573.79,386.35,577.62Zm-5.46-3.28c.55-1.09,2.73-1.09,2.19-3.28C385.81,571.06,383.08,574.89,380.89,574.34Zm12.57-1.64Zm-13.66-3.28Zm40.44,121.32c-.55,0,.54-1.09,0,0Zm0,27.32c-3.83,0,1.09-4.92,0,0Zm0-86.34c-.55.55.54-.55,0,0Zm-4.92,70.49c-.55.55.54-1.09,0,0Zm-8.2,50.28c-.55.55,1.09-.55,0,0Zm0,6c-.55.55,1.09-.55,0,0Zm-1.09-23c1.09-1.64,1.09-4.92,4.37-4.37,0,2.18,1.64,2.18,1.09,4.37C408.76,735.55,408.21,737.73,406,735.55Zm2.18-55.19c-3.28-.55,1.1-4.92,0,0Zm0,14.75c0,.55,1.1-.55,0,0ZM411,688c3.27,2.73-1.64,7.65,0,0Zm0-11.48c.54-4.92,6.55,1.09,0,0ZM412,727.35c1.64-6.56,5.46,4.37,0,0ZM393.46,829c1.64-1.64,6.56-3.83,6,1.09A14.73,14.73,0,0,1,393.46,829Zm2.18,10.38Zm-11.47-1.09c-1.64-.55-1.64-2.19-3.28-2.19C381.44,831.73,385.26,833.91,384.17,838.29Zm-2.19-12c2.74,3.28-3.28,7.11,0,0Zm2.19-3.28c-3.28,0,1.09-4.91,0,0Zm-1.09,39.35c.54-1.09-.55.55,0,0Zm0,14.75c-3.83-1.63,4.37-2.73,0,0Zm1.09,6c1.09-1.1-.55.54,0,0Zm0,15.84c4.37,3.83-3.28,3.83,0,0Zm1.09-25.13c-3.82-.55-1.64-4.38-1.09-7.11C386.9,867.25,384.72,871.62,385.26,873.81Zm0-19.68c1.64-2.18,1.09-2.73-2.18-2.18v-3.28C386.35,847.58,390.18,854.68,385.26,854.13ZM386.35,882h2.19v2.19h-2.19Zm1.1-14.21Zm0-29.5c5.46-4.38,4.92,5.46,0,0Zm0-7.11c2.18.55,2.73,2.19,2.18,4.37C388.54,835,388,833.37,387.45,831.18Zm3.82-8.2c-3.82,3.83-3.82-3.82-1.09-6C395.64,818.07,387.45,821.34,391.27,823Zm-2.18-14.75c-.55-3.83,2.18-1.64,3.28-1.09C392.37,808.23,390.18,807.68,389.09,808.23Zm13.66-83.06c-1.64,8.19-6.56,3.27,0,0Zm-1.09-4.92c-.55.54.54-.55,0,0Zm2.18-7.11a1.67,1.67,0,0,0,.55-1.09,1.67,1.67,0,0,1-.55,1.09h0c-.54.55-.54.55-.54,1.1C403.84,713.69,403.84,713.69,403.84,713.14Zm0-9.83c-.54.54.55-1.1,0,0Zm0,56.28c0,2.19-1.64,2.19-1.09,4.38C399.47,764,400,759.05,403.84,759.59Zm-2.18,9.29c-.55-2.18,0-3.82,2.18-3.28v3.28Zm1.09,4.38c-4.37-1.64,3.82-3.28,0,0Zm-1.09-28.42c-3.28-.55-3.83-3.28-4.38-6C401.66,737.73,400.56,742.11,401.66,744.84Zm-3.83,7.65c1.09-.55,0,.55,0,0Zm4.92,2.73c-1.09,1.64-2.73,2.73-6,2.19C397.83,755.22,400.56,752.49,402.75,755.22Zm-4.92,5.47c-3.82-1.64,4.92-2.74,0,0Zm0,6c4.92.54,1.64,11.47-2.19,7.1C399.47,772.16,396.19,768.34,397.83,766.7Zm-1.09,16.94c1.09-.55-.55.54,0,0Zm0,13.11v4.38C392.91,801.13,392.37,795.66,396.74,796.75Zm-3.28-30c3.82,2.73-3.28,5.46,0,0Zm1.09-10.39c.55-1.09-.54.55,0,0Zm0,56.29c-1.09-.55-.54-2.18-2.18-2.18C393.46,807.14,397.28,811.51,394.55,812.6Zm-1.09,50.82c-3.28,0,1.09-4.92,0,0Zm4.37-45.9c-3.28-1.09,1.09-3.28,1.09-4.37,1.1.54.55,2.18,2.19,2.18,0,1.1-1.09.55-1.09,0C399.47,815.33,398.38,815.88,397.83,817.52ZM400.56,800c-3.82,0,1.1-4.92,0,0Zm-1.09-19.67c1.64,2.19,5.46,5.46,2.19,9.29C400,786.37,397.28,784.18,399.47,780.36Zm3.28,18.58c-2.73-3.83,3.82,2.73,0,0Zm1.09-7.1c1.64.54,1.09,2.73,1.09,4.37C402.2,796.21,402.2,793.47,403.84,791.84Zm1.09-11.48c-3.27-1.09,1.1-6,0,0ZM382,842.66c-3.28,0,1.1-4.92,0,0Zm0,114.21c-3.82-1.64,1.1-6,0,0Zm3.28-25.68c-2.73-3.83,3.83,2.73,0,0Zm2.19,7.1c-2.73,2.19,1.09,4.92-1.1,7.1C384.72,945.39,384.17,936.65,387.45,938.29Zm-1.1,20.77c-3.82-3.28,3.83-3.83,0,0Zm2.74-6c-3.83,0,1.09-4.37,0,0Zm0-34.42c-.55.54.54-.55,0,0Zm5.46-4.38c-4.37-3.27,3.83-1.63,0,0Zm1.09,13.67c-3.27,0,1.1-4.92,0,0Zm-1.09-9.29c-3.28,0,1.09-4.92,0,0ZM393.46,935c-.55.55.55-1.09,0,0Zm2.18,7.65a61.57,61.57,0,0,1-2.18-7.1C397.28,935.56,397.83,941,395.64,942.66Zm1.1-22.95c1.09-.55-.55.55,0,0Zm1.09-6.56c1.09-1.09,0,.55,0,0Zm2.73,19.13c2.74,3.28-3.28,7.1,0,0Zm1.1-24Zm2.18-11.47ZM406,924.63c-4.37-3.28,3.82-1.64,0,0Zm-1.64-6Zm5.46-16.94c-2.73-.55,0-4.38,2.19-3.28C412.59,900.58,409.85,899.49,409.85,901.68Zm4.37-16.4c-2.73.55-1.63-2.18-3.27-2.18C410.4,880.91,415.32,883.1,414.22,885.28Zm-22.4,27.33h0a4.08,4.08,0,0,1,.55,2.18c-1.1,0-1.1.55-1.1,1.09-.54,0-.54,0-1.09-.54L382.53,929l2.19-13.66h-1.64c3.27-3.28-1.1-3.83-1.1-7.11a4.48,4.48,0,0,1,3.28,2.19l2.19-12.57v-1.64l7.1-38.8a4.16,4.16,0,0,0-.54-2.18l.54.54,3.28-18.58c2.73,1.1,4.92,2.19,7.65,3.28,1.09-1.64,2.73-3.82,1.09-3.82.55-1.64,1.64.54,3.28,0-1.09,1.09-1.64,2.73-2.73,4.37,6.56,2.73,13.12,4.92,20.22,7.1l-1.09,2.19h0Zm24.59-20.22c-3.82-2.19,3.83-3.83,0,0Zm2.19-17.49c-3.28,0,1.09-4.92,0,0Zm0,23c0,.55,1.09-.55,0,0Zm1.64-16.94c-3.83-.55,1.09-4.92,0,0Zm0-14.21Zm4.37,3.83c1.64.54,1.09,2.73,1.09,4.37C423,874.35,423,871.62,424.61,870.53Zm1.09,21.86c-3.82-1.64,4.37-3.28,0,0Zm1.09-14.21c1.1-.55-.54.54,0,0ZM429,853c5.46,3.28-1.09,6.56-1.09,11.48C425.15,860.14,430.07,856.87,429,853Zm1.09,18.58c-1.64-3.28,1.64-4.92,4.37-8.2C438.27,866.16,431.17,868.89,430.07,871.62Zm3.83-21.86c-4.37-3.28,3.82-1.64,0,0Zm0,5.47c-3.83-1.1,1.09-6,0,0Zm4.37,4.91c1.09-1.09-.55,0,0,0Zm2.19-14.2c-2.74,0-2.74-2.74-2.19-6C441,840.47,441,843.2,440.46,845.94Zm1.63,6c7.66,3.28,2.74,7.65,0,0Zm0-23c1.1-7.66,6-4.38,0,0Zm5.47,16.94c-2.73-.55-3.28-3.83-4.37-6C446.47,840.47,448.11,842.11,447.56,845.94Zm1.09,6c-3.28-1.64,1.64-6,0,0Zm1.1-32.24H453c.55,2.18-.54,3.27-1.09,4.37C450.84,823.53,450.29,821.89,449.75,819.71Zm1.09,18.58h3.28c0,2.73-1.1,3.82-3.28,3.27Zm3.82-20.77c.55-1.09-.54,0,0,0Zm-2.18,33.33c.54-1.09-.55.55,0,0ZM467.23,853c-.54.55.55-.55,0,0Zm8.2,4.37c.55-.54-.55.55,0,0ZM488,860.14c-1.09,0-1.09.55-1.09,1.1-2.19.54-1.64-5.47,1.09-3.28Zm8.2,2.19c.54-1.09,2.18-.55,2.18-2.19C501.66,860.69,498.38,863.42,496.2,862.33Zm3.27-4.92c.55-.54-.54.55,0,0ZM511,858.5h-2.19v-2.18H511Zm11.48,0h-2.19v-2.18h2.19Zm11.47-1.09c-.54.55,1.09-.54,0,0Zm3.83,0Zm18,2.73c-3.28-.54,1.09-4.91,0,0Zm4.92-1.64c.55-.54-.55.55,0,0Zm21.86-1.09c3.28-3.28,1.64,4.37,0,0Zm5.46-2.18c-3.28,0,1.1-4.92,0,0ZM577.07,852c3.28,2.73,7.11,1.64,4.37,6.55a6.58,6.58,0,0,1-4.37-6.55c-7.1,1.09-14.21,2.18-21.31,2.73v.55c-.55,0-.55,0-.55-.55a270.12,270.12,0,0,1-30.05,1.64q-16.39,0-32.79-1.64c.55.55,1.09,1.09.55,2.73-1.1-.54-3.28-1.64-3.28,0-2.19-1.09-1.1-2.73.54-3.28a7,7,0,0,1-3.27-.54c0,.54-.55.54-1.1,1.09-1.09-.55-1.09-1.09-1.09-1.64a217.87,217.87,0,0,1-27.32-4.92,37.16,37.16,0,0,1,1.09,3.83c-2.73,0-3.28-2.19-3.83-4.37-1.09,0-2.18-.55-3.28-.55l6-10.38c0-.55.54-1.64,1.09-1.64l2.73-4.92h0l24.59-42.63h-.54v-2.18h1.64l8.74-15.3c-1.09-1.64-.55-5.47,2.18-3.83-.54.55-.54,1.09-1.09,2.19l2.73-4.37c-1.09,0-2.73,0-2.73,1.09-2.73-1.09,2.19-3.83,2.19-6,1.09.54,1.09,1.64,1.09,3.28l6-10.93c-1.09-1.1-.54-1.1.55-1.1l5.46-7.65a9.78,9.78,0,0,1-4.92,3.28c2.19-3.82,6-5.46,7.11-10.38a3.47,3.47,0,0,1,0,3.28l8.74-15.3-3.28-5.47v.55c-2.73.54-2.18-1.64-2.18-3.28.54,0,.54,0,.54.55l-4.37-7.11c-.54,1.09-3.28.55-1.09-2.18l-1.09-2.19-2.74,4.92c.55.54,1.1,1.09-.54,1.64h-.55l-16.39,29c1.64,0,3.28,0,2.18-2.19,3.28,1.64-1.09,5.47-2.73,3.83L488,746.48c1.09.54,1.09,1.64-1.09,1.64l-7.66,13.66h3.28q0,4.1-3.28,3.28v-2.73l-11.47,20.22c1.09,3.27,8.2,0,7.1,5.46-2.73-1.64-2.18-2.19-6-1.09,0,1.09.55,1.09,1.09,1.09-1.63,3.28-2.73-2.73-2.18-5.46L455.21,804.4v1.1h-.55l-.54,1.64h4.37c.55,2.73-1.64,2.73-1.09,5.46-.55-2.18-5.47-5.46-4.38.55-1.09,0-1.09-.55-1.09-1.64l-18,31.15c0,1.64-.55,3.28-2.73,2.18a2,2,0,0,0,.54-1.64c-3.28-1.09-6-2.18-9.29-3.28-1.09,2.74,1.09,2.19,1.64,5.47-3.28,0-2.18,2.19-4.37,0,1.09-1.64.55-4.92,1.64-6-7.11-2.19-13.66-4.92-20.22-7.65l7.1-40.44c-2.18-.55,0-3.28.55-1.64l3.28-18c-1.64.54-2.19-1.1-2.19-2.19-1.09,0-1.09,1.64-1.09,2.19-3.28-5.47.55-7.65,4.37-12.57.55.54.55.54.55,1.09l.54-4.37a2.52,2.52,0,0,1-1.63-2.73c.54,0,1.09.54,1.63.54l19.13-108.2a2,2,0,0,0-1.64-.55c0-1.09,1.09-1.63,2.19-1.09l3.82-20.22a126,126,0,0,0,18.58,15.3l-18.58,7.11-3.82,22.4,45.9-16.94c3.28,1.1,6,2.19,9.29,3.28l21.31,38.25c.55,0,.55.55.55,1.1l8.74,15.84a1.69,1.69,0,0,1,.55-1.09c2.19,0,.55,3.83,2.19,4.37v.55l9.83,18h0l1.1,1.64c.54,0,1.09.55,1.09,1.64l2.73,4.37c.55-.54,1.09,0,.55,1.64L547,756.86c0-1.09.54-2.73,0-3.82,3.82-.55,4.92,1.09,4.37,4.37-2.19-3.83-3.28-2.19-3.28,1.09L578.17,811v-.54h2.18v2.18h-1.09l20.22,35.52C591.83,849.76,584.72,850.85,577.07,852ZM456.85,821.89c-3.28,0,1.09-4.92,0,0Zm-1.09,3.28Zm10.38-24c-.55-2.19.55-3.28,1.09-4.38C470.51,796.75,470,802.22,466.14,801.13Zm4.37,9.29c-.55,3.27-2.18,5.46-6,6C464.5,812.05,466.69,809.87,470.51,810.42Zm-6.56,0v-6C466.69,805,469.42,811,464,810.42Zm1.1,9.29c0,1.09-1.1,1.09-1.1,2.18-1.09,0-1.09-1.09-2.18-1.09,0-1.09,1.09-1.09,1.09-2.19C463.41,818.61,464,819.71,465.05,819.71Zm9.29-27.87c-3.83,0,1.09-4.92,0,0ZM480.89,776c4.38,3.28-3.27,3.82,0,0Zm1.1,10.38c1.09-1.09,0,.55,0,0Zm0,3.28v3.28c-2.19-.55-3.83,0-3.28,2.18-1.64,0-.55-3.27-2.19-3.27C478.16,791.29,478.71,790.74,482,789.65Zm-4.37,11.48c.54-.55-.55.54,0,0Zm-1.1-14.76c.55-1.09-.54.55,0,0Zm1.1-15.3c-3.28,0,1.09-4.92,0,0Zm-1.1,3.82c-3.28-.54,1.1-4.91,0,0ZM488,757.41c-3.83,2.73,5.46,7.65-2.19,8.19C486.36,762.87,483.63,756.31,488,757.41Zm-1.09-4.92c-3.28,0,1.09-4.37,0,0Zm5.46,14.21c0,3.28-2.73,5.46-4.37,3.28C487.45,767.24,489.64,766.15,492.37,766.7Zm-3.28-16.4c-.55.55.55-.54,0,0Zm2.19,7.11c.54-1.64,1.64.54,3.28,0,.54,1.64-1.1,2.18-1.1,3.28C491.82,760.69,493.46,757.41,491.28,757.41Zm-1.1,21.86c-4.37-2.74,3.83-1.64,0,0Zm-1.09-6Zm-2.18,4.91c-3.28-.54,1.09-4.91,0,0Zm11.47-30c-2.18,3.82-2.73-2.19-2.18-4.37C498.93,742.65,495.1,749.21,498.38,748.12Zm2.19-9.29c1.09-.55-.55.54,0,0Zm2.18,4.92v2.18h-2.18v-2.18Zm-1.09,13.66c-.55,2.73-3.28-1.1-2.19-3.28C501.11,754.13,500,757.41,501.66,757.41Zm6-39.35c-.55-2.18,0-3.82,2.19-3.28v3.28Zm2.19,17.49c-.55-.55-1.1,3.28-1.1,3.28C507.12,739.37,507.12,732.82,509.86,735.55Zm-2.19-11.48c-3.82-1.64,4.37-3.28,0,0ZM512,712.6c-4.37-3.28,3.83-1.64,0,0Zm0,6.55c-3.28-1.09,1.64-6,0,0Zm2.19,6c0,.54,1.09-1.1,0,0ZM406,782.55c3.28-3.83,2.73,6,0,0ZM453.57,643.2c.55,2.18-.55,3.27-1.09,4.37C450.29,648.11,450.29,641.56,453.57,643.2Zm-2.73,10.38c-1.64,0-4.37-.55-4.37,1.09C442.64,650.3,451.38,646.47,450.84,653.58Zm2.73,0c-3.82,0,1.09-4.92,0,0Zm-16.39,11.47c-.55.55,1.09-.54,0,0Zm78.69,17.49c-3.83-.55,1.09-4.92,0,0Zm-1.64,12.57c-.55-1.64,1.09-2.19,1.09-3.28C518.05,691.28,517.51,696.75,514.23,695.11Zm8.2-3.28c-2.74-.55-.55-6,2.18-4.37C524.61,689.1,521.88,688.55,522.43,691.83Zm3.82,9.29c-3.82-.55,1.09-4.92,0,0Zm-4.92,4.37c-3.28,0,1.1-4.92,0,0Zm6,11.48c.55-.55-.54.55,0,0Zm.55-3.28h0Zm14.21,15.85c-1.09,2.18-2.19,0-3.28,0C539.37,727.9,541,729.54,542.1,729.54ZM541,719.15a55.7,55.7,0,0,1,2.18,6C539.91,725.17,539.37,720.79,541,719.15Zm-1.1,17.49c.55-.54-.54.55,0,0Zm-6-25.14c-.54-3.82,1.09-4.91,4.37-4.37C538.27,709.32,537.18,711,533.9,711.5Zm3.83,15.85a3,3,0,0,1-2.19-3.28A3.16,3.16,0,0,1,537.73,727.35Zm-3.83-23c-3.82-2.19,3.83-3.83,0,0Zm-1.09,7.1c1.09-1.09-.55,0,0,0Zm0,7.65c-3.28,0,1.09-4.37,0,0Zm-1.09,8.2c-2.74-3.82,3.82,2.73,0,0Zm13.66-3.28c-3.28-.54,1.09-4.92,0,0ZM549.2,747c-3.82-.54,1.1-4.91,0,0Zm2.19-8.19Zm3.28,29a3,3,0,0,1,2.18,3.28C554.67,771.62,554.67,769.43,554.67,767.79Zm3.82-12.57c.55-1.09-.54.55,0,0Zm6.56,4.37c-1.09,1.64-2.73,2.74-6,2.19-.55-2.19.55-3.28,1.09-4.37C562.32,758,561.77,761.23,565.05,759.59ZM564,757.41c-3.28-.55,1.09-4.92,0,0Zm-1.1,14.75c.55-.54-.54.55,0,0Zm-1.09-6.56c0,1.1-1.09,1.1-1.09,2.19C558,767.24,560.13,762.33,561.77,765.6Zm8.2-6c-1.09,0-1.09.55-1.09,1.1-2.19.54-1.64-5.47,1.09-3.28Zm1.09,26.78c-3.82-.55,1.09-4.92,0,0Zm2.19,4.37c-3.28,0,1.09-4.92,0,0Zm4.37-10.38c1.64,1.09,1.64,3.82,2.19,6C576.53,787.46,578.17,782.55,577.62,780.36ZM581.44,794v3.28h-2.18C578.71,795.11,579.26,794,581.44,794Zm3.28,15.3c-3.28-.54,1.1-4.92,0,0Zm4.92,8.2c.55-1.09-.54,0,0,0Zm2.19-16.39c2.18,1.09,2.73,3.82,1.09,6C589.1,806,592.37,805,591.83,801.13Zm1.09,33.33c-3.82-1.09,1.09-6,0,0Zm-1.09-25.14c.54-1.09-.55.55,0,0Zm-1.1,11.48c-2.73-3.83,3.83,2.73,0,0Zm5.47-3.28c1.09-1.09-.55,0,0,0Zm1.09,16.94c1.1-.55-.54.55,0,0Zm2.73,7.1c-4.91-2.73,3.83-1.64,0,0Zm-1.63-20.76c1.09-.55,0,.54,0,0Zm9.29,40.44c-3.28-1.64,1.63-6,0,0Zm0-11.48c-3.28-.55,1.09-4.92,0,0Zm1.09,3.28c0,.55,1.09-.55,0,0Zm7.1-4.37c-4.37-3.28,3.83-2.19,0,0Zm2.19,15.85c-3.28-1.1,1.64-6,0,0Zm4.92-3.28c-.55.54.54-1.1,0,0Zm9.29,18c-.55.55.54-.55,0,0ZM634.45,905c-3.82-.54,1.1-4.91,0,0Zm11.48,5.47h-2.19v-2.19h2.19Zm14.75,27.87c-3.28,0,1.1-4.92,0,0Zm-1.09-13.66c-.55.54,1.09-1.1,0,0Zm7.1,14.75c.55-.54-.54.55,0,0Zm1.1,6c-.55.55.54-1.09,0,0Zm-1.1-11.47c-.54-2.19.55-3.28,1.1-4.37h.54l-45.9-79.79c9.84-3.28,20.22-6.56,29.51-10.93l9.29,51.37h.55v1.64l7.1,37.71C670.52,930.09,669.43,933.92,666.69,933.92Zm-15.3-108.75c-2.73-3.83,4.37,2.73,0,0Zm0-30.06c0,.55,1.1-.54,0,0Zm9.29-8.74c-2.18,1.09-3.28,2.73-6,3.28C655.76,786.92,658.5,783.64,660.68,786.37Zm-3.28-18.58c.55-1.09-.54.55,0,0Zm3.83,50.82-.55-.54c-.54,0,0,0,.55.54h0c.55.55,1.09,1.1,1.64,1.1C662.32,819.71,661.78,819.16,661.23,818.61Zm.55,59.57c0,.54,1.09-.55,0,0Zm-3.28-15.85c-3.83-2.19,3.82-3.83,0,0Zm-1.1-32.24c-3.27-3.83,3.28,3.28,0,0Zm1.1,4.37c-.55-1.64,1.09-2.19,1.09-3.28C661.78,830.63,661.23,836.1,658.5,834.46ZM657.4,800c2.74.55,5.47,1.64,6,4.37C660.68,803.86,658,803.31,657.4,800Zm8.2,53c-3.82-1.64,4.37-2.73,0,0Zm1.09,42.62c-3.27,0,1.1-4.91,0,0Zm23,102.74c.54-1.09-.55.55,0,0Zm2.18,10.38Zm7.11-8.19c-.55.54.54-.55,0,0Zm-3.28-29Zm-2.74,34.43c0,.55,1.1-.54,0,0Zm-1.09-27.32c-3.28-1.64,1.64-6,0,0Zm1.09,8.2c-2.73,3.82-3.82,3.27-1.09,8.19-2.73,0-3.82,2.19-6,0C687.46,991.3,689.65,984.19,692.92,986.93Zm-4.37-9.29c-.54.54.55-1.1,0,0Zm0-6c-3.28,0,1.1-4.91,0,0Zm-2.18-6.55c.54-1.1-.55,0,0,0Zm-1.1,18c.55-.55-.54.55,0,0Zm-1.09-2.19c-3.82-1.09,1.09-6,0,0Zm-1.64-57.38Zm-1.09-31.14c1.09-1.1-.55.54,0,0Zm1.09,56.28c-3.28,0,1.09-4.92,0,0Zm-4.37,13.66h2.19v2.19h-2.19Zm-1.09-42.62c.54-.55-.55.55,0,0ZM674.89,935c-4.37-3.82,3.28-3.82,0,0Zm0-63.39c-2.73.55-1.64-2.19-3.28-2.19C671.61,866.16,675.44,868.89,674.89,871.62Zm-3.82,27.32c-.55.55,1.09-.54,0,0Zm1.09,17.49c-3.83,0-3.83-2.73-4.37-6C671.07,911,671.61,913.7,672.16,916.43Zm-3.83-45.36c0-.54.55-1.09,1.1-1.64a.53.53,0,0,1,.54-.54.53.53,0,0,1-.54.54,1.92,1.92,0,0,0-.55,1.1Zm.55-47c.55-1.64,2.73-2.19,4.37-2.19C674.89,825.17,671.07,824.08,668.88,824.08Zm13.66-2.19h-2.18v-2.18h2.18Zm3.83-3.28c-3.83-.54,1.09-4.92,0,0Zm4.37-1.09c0-2.19,1.64-2.19,1.09-4.37C694,812.05,694,819.16,690.74,817.52Zm4.92-7.1c-.55.54.54-.55,0,0Zm5.46,1.09c-3.28,0,1.09-4.92,0,0Zm2.19-3.28Zm11.47-8.2c-3.28,0,1.1-4.92,0,0Zm10.39-11.47c1.64-4.92,6.55,0,0,0Zm8.19-4.92c1.1-.55-.54.54,0,0Zm1.1-2.19c1.09-.54-.55.55,0,0Zm8.19-2.18h-3.28c-.54-1.64,1.1-2.19,1.1-3.28,1.09,0,1.09,1.09,2.18,1.09Zm34.43-40.44h0c0,.54,0,.54.55.54A.53.53,0,0,0,777.08,738.83Zm-25.14,23.5a322.77,322.77,0,0,1-42.07,35.52l-.55.54c-1.64,1.1-2.73,2.19-4.37,2.74.54.54.54,1.09,0,0-4.92,3.27-9.84,6.55-14.76,9.29a24.15,24.15,0,0,1-.54,2.73,4.17,4.17,0,0,0-2.74-1.1,175.74,175.74,0,0,1-17.48,9.29L664,789.65h-3.28c-.54-2.19,1.1-2.19,2.74-2.73l-15.31-86.35h0l-3.82-21.31L623,671.61l6.55,38.25v-1.09h2.19V711h-2.19l7.65,42.62c2.19,0,1.64,3.28,1.1,4.92l2.18,10.93c.55.55,1.1.55.55,2.73h-.55l10.39,59c-8.2,3.83-16.94,6.56-25.69,9.84,0,2.18-.54,4.37-2.73,3.28a11.19,11.19,0,0,1,.55-2.74l-4.92,1.64L554.12,731.72l-1.09,1.1c-2.19-1.1-.55-1.64.54-1.64l-19.12-33.34a11.69,11.69,0,0,1-4.37,2.73,7.06,7.06,0,0,1,2.73-6l-19.67-35a131.62,131.62,0,0,0,24,0l-9.84,16.94,11.48,19.67,24-42.08c3.28-1.09,6-2.18,9.29-3.27l60.66,22.4c0-1.64,1.1-1.64,1.1-3.28,2.18.55,4.91.55,4.37,3.28-2.19,2.19-2.19,0-4.92,0L647,678.17h.55l18,6.56h0c1.09-.55,1.64,0,1.64,1.09L781.45,727.9A214.2,214.2,0,0,1,751.94,762.33Zm-108.2-48.64c1.1-7.1,5.47,3.83,0,0Zm0-10.38c.55-1.1-.54.54,0,0ZM647,717Zm0,10.38c-3.28,0,1.09-4.92,0,0Zm-2.18,38.25H647v2.19h-2.18Zm2.18,18Zm-2.18-49.18c2.18-2.19-1.64-4.38,3.27-4.38C647.57,731.72,647.57,734.46,644.84,734.46Zm3.27,13.66c1.1-.55-.54.54,0,0Zm1.1,16.39c-3.28-.54,1.09-4.92,0,0Zm-1.1-25.68c-.54-1.64,1.1-2.19,1.1-3.28C651.39,735,650.85,740.47,648.11,738.83Zm1.1-16.94c1.09-1.1-.55,0,0,0ZM633.36,717c.55-3.28,4.92-2.19,6-4.37C642.1,714.24,635,715.88,633.36,717Zm4.37,12.57c-3.28,0,1.09-4.37,0,0ZM636.64,688c-2.19,0-.55-3.83-3.28-3.28C634.45,681.45,639.37,686.91,636.64,688Zm0-6.56c-.55.54.54-1.09,0,0Zm0,16.94Zm-2.19,9.29Zm-1.09-29c-3.83,3.27,2.73-3.28,0,0Zm6.56,68.3c-3.83-3.27,3.82-3.82,0,0Zm-2.19-48.63c.55-2.73,6-.55,4.37,2.18C638.82,702.21,639.37,698.94,637.73,698.39Zm-8.2,6c-3.27-.55,1.1-4.92,0,0Zm-2.18-21.86c-3.28-.55,1.09-4.92,0,0Zm-94.54-10.38c1.09-1.09-.55.54,0,0Zm64.48-20.77c-3.82-1.64,4.92-2.73,0,0Zm1.1,1.1c4.37,8.19-2.19,8.74,0,0Zm9.29,4.37c-3.28-1.1,1.63-6,0,0Zm11.47,0c.55,0,.55-.55,1.09-.55,0,.55-.54.55-1.09.55Zm4.92,3.82c4.37,6.56-5.47,6.56,0,0Zm5.46,9.29c-2.73-.54,0-6.56-3.27-6,.54-3.82,3.27,3.83,3.27,0C633.36,665.05,628.44,666.69,629.53,670Zm10.39-12c-.55.55,1.09-.55,0,0Zm8.19,2.73c1.64.55,2.19,2.73,2.19,4.37C647,665.6,646.47,662.32,648.11,660.68Zm8.2,10.39c-3.82-1.64,1.09-6,0,0Zm10.38,5.46v-2.19h2.19v2.19Zm3.28-9.29c-.54.55,1.1-.55,0,0Zm7.11,9.29Zm8.19-3.28c-3.82-.55,1.1-4.92,0,0Zm5.47,1.09v3.28h-2.19C688,675.44,688.55,674.34,690.74,674.34ZM695.66,688c.54-.55-.55.54,0,0Zm5.46-3.28c-2.73-1.1,4.37-4.92,6-2.19C707.68,685.82,700.58,681.45,701.12,684.73Zm4.92,2.18c.55-.54-.55.55,0,0ZM703.31,694c-2.73-3.83,3.82,2.73,0,0Zm11.47,7.1c-3.28-.55,1.1-4.92,0,0Zm12,5.47c-3.83-1.64,4.37-2.74,0,0Zm0-11.48c3.82.55,4.91,2.19,3.27,6C727.9,700,725.71,698.94,726.81,695.11Zm5.46,10.38c-3.28,0,1.09-4.92,0,0Zm6-4.37c2.73-.55,1.64,2.19,3.28,2.19-1.64,1.09-1.64,3.82-4.37,3.28C738.28,703.85,736.64,704.4,738.28,701.12Zm-1.09-3.82c-3.83-1.64,4.37-2.74,0,0Zm-1.64,3.82Zm0,7.65c-3.28-1.09,1.64-6,0,0Zm10.38-12.57c1.1,3.28-2.18,2.19-2.18,4.37C741.56,700.57,743.75,695.66,745.93,696.2Zm3.83,1.1a3,3,0,0,1,2.18,3.27C749.21,701.67,749.76,699.48,749.76,697.3ZM753,709.86c-3.83-1.63,4.37-2.73,0,0Zm3.28-3.27c-3.28,0,1.09-4.92,0,0Zm3.82,7.1c-3.82-.55,1.09-4.92,0,0Zm0-11.48c-.55.55.55-1.09,0,0Zm2.19,16.94c-3.28,0,1.09-4.37,0,0Zm3.28-13.66c-3.28,0,1.09-4.92,0,0Zm0,12.57c1.09-.54-.55.55,0,0Zm3.82-10.38Zm1.09,1.09c2.19-.54,2.19,1.64,2.19,3.83C771.07,712.05,770.52,711,770.52,708.77Zm3.28,13.12c.55-1.1-.54,0,0,0Zm7.11-4.92c-1.64,3.82-1.64-3.28,1.09-2.19C784.19,712.05,781.45,715.88,780.91,717Zm4.37,6c-3.28-.55,1.09-4.92,0,0Zm12.57-14.21c-2.74-3.28,3.82,3.28,0,0Zm1.09,16.4c-2.73-3.83,4.37,2.73,0,0Zm4.92,9.29c-1.64,0-2.19-7.65,1.09-6A7.17,7.17,0,0,1,803.86,734.46Zm2.18-1.1a3,3,0,0,1,2.19,3.28C806,737.19,806,735,806,733.36Zm4.92,0c-3.28-3.82,3.83,2.74,0,0Zm2.19,4.37c-3.83,0,1.09-4.91,0,0Zm0-7.1c-3.83,0,1.09-4.37,0,0Zm6.56,3.83a3,3,0,0,1,2.18,3.27C819.71,738.28,820.25,736.1,819.71,734.46Zm6-7.11Zm2.18,16.4c-3.28-1.64,1.1-6.56,0,0Zm0-4.92c1.1-.55-.54.54,0,0Zm4.92-7.11c-3.82,0,1.09-4.37,0,0Zm43.72,26.78Zm3.28-12.57h-2.19v-2.18h2.19Zm7.1,8.2c2.73-4.37,2.73,5.46,0,0Zm-25.68-47.54c1.09-.55-.55.54,0,0Zm-5.47-2.19c-3.82-.55,1.1-4.92,0,0Zm-14.21-4.92c0,.55,1.1-.54,0,0Zm-2.18-3.28c-.55.55,1.09-.54,0,0Zm-6.56-7.1Zm55.74,56.29-86.89-31.7c6-8.74,10.93-18,15.85-27.32Zm-80.33-52.47c-3.28-.54,1.09-4.91,0,0Zm13.12-9.29c-3.83-.54,1.09-4.91,0,0Zm6.55-37.16c1.1-.54-.54.55,0,0Zm12.57-20.76H841C841,626.25,840.47,625.71,840.47,625.71Zm2.73-16.94c-.54-1.64,1.1-2.19,1.1-3.28C846.48,604.94,845.94,610.41,843.2,608.77Zm2.19-17.49v2.19c-1.09,0-1.09.54-1.09,1.09C842.11,595.11,842.66,589.64,845.39,591.28Zm3.28-49.73c-3.83-1.64,3.82-3.28,0,0Zm6-28.41h-2.19V511h2.19ZM852,509.31c1.64-4.37,6.56,0,0,0Zm6,2.73c-.55-3.82,2.18-1.64,3.28-1.09C861.24,512,859.05,511.5,858,512Zm1.09-15.3c1.64.55,1.09,2.73,1.09,4.37C857.41,501.11,857.41,498.38,859.05,496.74Zm10.38,2.19c-3.27,0,1.1-4.37,0,0Zm2.19-10.39c2.73,0,.55,3.83,0,4.38C868.34,492.37,872.71,490.73,871.62,488.54Zm0,8.2c.55-1.64,2.19-1.64,2.19-3.28C877.09,494,874.35,497.83,871.62,496.74Zm15.3-9.29c-4.37-1.64,3.83-3.28,0,0Zm12.57,8.2c-4.37-2.73,3.83-1.64,0,0Zm3.28-2.19Zm25.68-8.19c-3.82,0,1.1-4.92,0,0ZM935,472.7c-2.73-.55-5.46-.55-4.37-4.38C932.28,469.42,936.65,468.32,935,472.7Zm4.92-2.19c-4.37-3.82,3.28-3.82,0,0Zm-6-18.58c1.09,0,1.09.55,1.09,1.09v2.19c-4.37-.55-6-1.09-6-4.37C927.36,445.92,933.37,455.76,933.92,451.93Zm-10.38-7.1c2.73,0,.54,3.82,1.09,6C922.44,450.84,924.08,446.47,923.54,444.83Zm0,16.39c-3.28-.55,1.09-4.92,0,0Zm-4.38-15.3c2.74-3.83,2.74,6,0,0Zm-1.09,10.38Zm-3.82,0c-3.28,0,1.09-4.37,0,0Zm-7.66-6.56a10.25,10.25,0,0,1,4.38,8.2c-3.83,0-.55-6.56-6-4.37C906.05,451.93,906.59,451.38,906.59,449.74Zm-9.29-3.82c2.19-.55,1.64,5.46-1.09,3.28C895.67,447.56,897.3,447.56,897.3,445.92Zm-25.68-2.19c1.09,0,1.09,1.64,1.09,2.19,0,1.09,2.19,1.09,3.28,1.09-1.09,1.1-.54,4.37-3.28,3.28C872.71,448.11,871.07,447.56,871.62,443.73ZM869.43,453c6.56,4.38,1.64,9.29,0,0Zm-14.75,9.29h0C853.59,462.86,850.85,464.5,854.68,462.31Zm21.31,1.1c-2.73-.55,1.64-4.38,0,0h53.56v-1.1h2.18v1.1h6.56l-31.7,11.47v1.64c-1.09,0-1.09-.54-1.09-1.09l-6,2.18h0v2.19H897.3v-1.64l-34.42,12.57v1.64c-1.1,0-1.64-.55-1.1-1.09L852,495.1c-1.1-10.38-3.28-20.76-5.47-31.15Zm-30,72.68c0,44.26-8.75,87.43-26.23,126.78L817,660.14a8,8,0,0,1,.55,3.82c-1.09-.55-1.09-2.73-3.28-2.18-.55-1.64.55-2.19,1.09-2.74l-105.46-88-21.32,7.65,26.23,21.86h0l32.79,27.32a6.71,6.71,0,0,1,2.73,1.1.53.53,0,0,1-.54.54l47,38.8c-.54-1.64.55-3.28,1.1-4.92,2.73,2.19,2.18,1.64,7.1,1.1.55,2.18-1.09,2.18-1.09,1.09-2.73,0-1.64,4.37-4.37,4.92L806,676c-.54-1.64,2.19-6,3.83-3.28,0,2.19-3.83.55-3.28,3.28a.54.54,0,0,1-.55-.54l6,4.92c-5.47,10.38-10.93,20.21-17.49,29.5l-47-16.94v1.64h-2.18v-2.18l-3.83-1.64c-.55.54-1.09,1.09-.55,2.73-1.64-.55-1.64-1.64-1.09-3.28l-10.38-3.82h0c-.55,0-.55,0-1.09-.55L596.2,637.18c6.56-4.37,12.57-9.83,18.58-15.3l3.28,19.68,20.76,8.19-1.09-6.55c-.55,0-.55,0-1.09-.55-.55-1.64,0-2.19.54-2.73l-.54-2.19v.55c-2.19,0-1.09-2.19,0-2.19l-6-34.43c1.64-2.73,3.28-5.46,4.92-8.74l2.73-1.09h0L665.05,582c0-.55.55-.55.55,0l12-4.37a2,2,0,0,1-.54-1.64c1.64.55,2.73.55,3.28,1.09l20.76-7.65v-.54h0l37.71-13.67V550.3a5.76,5.76,0,0,1,3.28,3.82L758,548.66c0-.55.55-.55,1.1-.55l13.66-4.37c0-.55,1.09-1.1,1.09-.55l10.39-3.82h0l43.71-15.85c.55-1.64,1.64-1.64,2.19-1.09l12.57-3.83c-3.83-4.92,2.73-4.37.54,0l2.19-1.09C845.94,523.52,845.94,529.53,845.94,536.09Zm-38.8,124.59c-3.28-.54,1.09-4.92,0,0Zm-8.2-11.47c1.09-1.1,0,.54,0,0Zm-3.28,10.38c-3.28-.55,1.09-4.92,0,0ZM794.57,664c.54-.55-.55.55,0,0Zm1.09-9.29v-2.18h2.19v2.18Zm-4.37,4.92c-.55,0,.55-1.09,0,0Zm-3.83-14.21c-2.73-3.82,3.83,2.73,0,0ZM786.37,658c-.55.55,1.09-.55,0,0Zm-1.09-6.56ZM774.9,639.92c1.09-1.1-.55.54,0,0Zm-1.1-15.3Zm-2.18,17.48Zm-6-9.29c1.09-.54-.55.55,0,0ZM760.14,635Zm-9.29-12.57v2.19h-2.19v-2.19Zm-13.66-19.67c-3.83,0,1.09-4.92,0,0Zm0-4.38c-4.37-2.18,3.28-3.82,0,0Zm2.18,21.86c-1.63-1.09-2.73-2.73-2.18-6C740.47,614.23,740.47,619.15,739.37,620.24Zm1.1-19.67c-3.28,0,1.09-4.92,0,0Zm-7.11,9.84Zm0,0a1.92,1.92,0,0,1-1.09-.55h.55A.54.54,0,0,0,733.36,610.41Zm-9.29-8.75c.55-3.28,2.74,1.1,4.38,0,.54,4.38.54,3.28,0,8.2-2.19.55-3.83-4.37,0-3.28A7.8,7.8,0,0,0,724.07,601.66Zm4.92-7.1c-1.64.55-1.64-6,1.09-3.28C729.54,590.73,729,595.11,729,594.56Zm-15.3,0c.55-1.64,2.19-1.64,2.19-3.28C719.16,591.83,716.42,595.65,713.69,594.56Zm-.55-7.1c-.54-1.1-2.73-4.38-.54-.55C713.14,586.91,713.14,586.91,713.14,587.46Zm-7.1-12c2.73-.54,6,6,1.09,6C707.68,578.17,705,578.71,706,575.43Zm0,16.94c6.56-1.64,3.28,4.92,0,0ZM695.66,582c-.55.55.54-.55,0,0Zm-61.21,53c-3.82,0,1.1-4.37,0,0Zm11.48-112.57v2.18h-2.19v-2.18Zm0-32.25c.54-1.09-.55,0,0,0Zm-1.09,53c-3.83-1.64,1.09-6.56,0,0Zm-1.1,12.57c.55-1.09-.54.55,0,0Zm0-18.58c-4.92-2.73,3.83-1.64,0,0Zm2.19,37.16c3.28,2.19-1.64,7.1,0,0Zm2.18,0c.55-1.64,1.64-2.73,2.19-4.37C654.67,570,651.39,574.34,648.11,574.34Zm9.29-7.1c-3.82-2.19,3.83-3.83,0,0Zm1.1,13.11a7,7,0,0,1,1.09,1.64c.55.55.55.55.55,1.09A7.44,7.44,0,0,0,658.5,580.35Zm4.92-.55c-4.92-2.73,3.82-1.63,0,0Zm11.47-5.46c-3.82-1.64,1.09-6.56,0,0Zm3.28-7.1c-3.83-2.19,3.83-3.83,0,0Zm6-6c2.73,0,.55,3.83,0,4.38C680.9,565.6,683.63,562.32,684.18,561.22Zm6.56,10.39c-.55.54,1.09-.55,0,0Zm17.49-24.05c-.55,8.75-8.75.55,0,0Zm0,19.68c-3.83-1.64,1.09-6,0,0ZM706,562.32v3.28h-2.19C703.31,564,703.85,562.32,706,562.32Zm-2.73-6.56c-3.28,3.28,3.28-3.83,0,0Zm7.1-4.92c-3.28,0,1.09-4.37,0,0Zm1.09-3.28c-.54.55,1.1-.54,0,0Zm6,6c.54-1.09-.55,0,0,0Zm0-4.91c.54-.55-.55.54,0,0Zm0,8.19c-1.64,1.1-1.64,3.83-4.38,3.28,0-2.73,0-6,3.28-6C715.88,555.76,716.42,556.31,717.52,556.85Zm3.27,2.19a3,3,0,0,1-2.18-3.28A3.14,3.14,0,0,1,720.79,559Zm1.1-9.29c-3.28,0,1.09-4.92,0,0Zm6-1.09c2.18,2.18-.55,2.18-1.09,4.37C723,553,723.53,548.11,727.9,548.66Zm1.09-2.19c-3.82-1.64,1.09-6,0,0ZM725.17,558c-3.28,0,1.09-4.92,0,0Zm12-7.11c-3.83,0,1.09-4.37,0,0Zm5.46-11.47Zm3.28,4.91c1.1-1.09,0,.55,0,0Zm6-10.93A6.86,6.86,0,0,1,753,535l.54.55A.54.54,0,0,0,753,535h0C752.49,534.45,752.49,533.9,751.94,533.35Zm4.38,12v2.18c-1.1,0-1.1.55-1.1,1.1C753,549.2,753.58,543.74,756.32,545.38Zm-1.1-2.19c-3.28-.55,1.1-4.92,0,0Zm3.83-3.82c-.55.54.54-.55,0,0Zm4.37,0c2.19-.55,2.19,6.55-1.09,4.37C761.78,541.55,762.87,541,763.42,539.37Zm2.19-12.57c1.09-.55-.55.54,0,0Zm4.91,16.39c-3.82-.55,1.1-4.92,0,0Zm0-7.1c-3.82-.55,1.1-4.92,0,0Zm6.56-3.83h0c0,.55.55.55,0,0Zm6,2.73q0,4.11-3.28,3.28V535Zm-1.09-7.1c-3.83,0,1.09-4.92,0,0Zm-2.19-2.19c-3.82,0,1.1-4.91,0,0Zm8.75,11.48c-3.28-1.09,1.64-6,0,0Zm3.82-9.29c.55-.55-.54.55,0,0Zm1.1,7.1c.54-1.09-.55.55,0,0Zm7.1-6v2.19c-1.09,0-1.09.55-1.09,1.09C796.75,532.81,797.3,527.34,800.58,529Zm1.09-4.37c.55-1.09-.54.55,0,0Zm5.47-10.38Zm2.18,11.47c0,.55,1.1-.54,0,0Zm3.83,1.1V529H811V526.8Zm0-13.66c-3.83-.55,1.09-4.92,0,0Zm8.2,4.37c-.55.54.54-.55,0,0Zm4.37-6.56c.54-1.09-.55,0,0,0Zm5.46,1.09c-2.18-.54-2.73-2.18-2.18-4.37C832.82,506,831.18,509.86,831.18,512Zm8.2,1.1c-3.28-1.64,1.64-6,0,0Zm1.09-7.11c-.54.55,1.09-.55,0,0Zm1.09-3.28c0,.55,1.1-1.09,0,0Zm-7.65-59c0,3.28-2.73,3.83-3.27,7.11C825.17,449.2,831.18,444.83,833.91,443.73Zm-3.82,16.4v2.18H827.9v-2.18ZM825.72,406c0,1.09-2.19,1.09-3.28,1.09C821.35,403.29,824.62,404.93,825.72,406Zm-16.4-35v4.37H805C806,374.33,806,370.51,809.32,371.05Zm-24.59-24a286.63,286.63,0,0,1,24,38.8,23.81,23.81,0,0,0,5.46-1.1c-.55,2.74,2.19,2.74,1.09,6-4.37,1.64-.54-4.92-3.27-4.38a7.7,7.7,0,0,0-2.19,1.64,337.9,337.9,0,0,1,23,56.29h-4.37v1.09c-1.09,0-1.64-.54-1.09-1.09H753.58a6.9,6.9,0,0,1,.55,3.28c-2.19.55-1.64-2.73-2.73-3.28h-.55c-1.09.55-.55,2.73-1.09,4.37-4.37,0-.55-1.09-1.1-3.28-1.63,2.19-7.1,5.47-7.1,0,2.19,1.64,4.37.55,4.37-1.09h-8.74c0,1.64-.55,3.83-2.73,3.28a7,7,0,0,1,.54-3.28H690.19L678.72,464H717c0-.54.55-1.09.55-1.64a5.82,5.82,0,0,0,3.27,1.1V464h3.83c0-1.09,1.64-2.18,1.64,0h50.27a36.88,36.88,0,0,1-1.09-3.82c2.73-.55,3.28,1.09,3.28,3.82h6.56c.54-2.18,2.18-3.82,1.64-6,2.18.55,2.18,3.28,4.37,3.28a4.29,4.29,0,0,1-2.19,2.19h20.77c-1.64-2.19,0-1.1,1.09,0h28.42c2.73,10.93,4.37,22.4,6,33.88,1.09,1.09,0,4.92.55,6.56-2.19,0-1.1-3.83-1.1-6l-46.45,16.94c2.74,1.1,2.19,4.92,2.74,7.66-1.64.54-2.74-4.38-3.28-1.1-1.64-1.64,1.64-2.73,0-6.56l-13.12,4.92a1.88,1.88,0,0,1-1.09.55h0l-80.88,29a1.92,1.92,0,0,0-.55,1.1.54.54,0,0,1-.54-.55l-24.59,8.74V559c-.55,0-.55,0-1.1-.55l-3.27,1.1h0l-7.11,2.73c1.09,1.09,1.09,6-1.64,4.37-.54-2.19.55-2.73,1.09-4.37l-14.75,5.46h0l-2.19.55c.55-2.19,1.1-4.92,1.64-7.11l-.54.55c-2.19-1.09,0-1.64,1.09-1.64a130.06,130.06,0,0,0,2.19-15.3l12,10.38c.54,0,.54,0,.54.55l2.19,1.64.55-.55c-.55-2.18,0-4.37-1.1-6a9.78,9.78,0,0,1,3.28,4.92l15.3-5.46-1.09-1.1c-1.09,1.1-2.73-.54-3.28-2.73l-3.28-2.73h0l-2.18-2.19c-2.19,1.64-4.92,2.19-8.2,2.73,0-3.27,5.47-1.64,4.37-6h0l-14.21-12-.54.55c-1.64-.55-1.1-1.1-.55-1.64l-8.74-7.11c-.55-3.28-1.1-6.55-1.64-9.83l23-39.35c-.55-.55,0-.55.55-1.09h0c0-2.19-1.64-2.19-1.1-4.37a5.43,5.43,0,0,0,2.74,2.18l50.82-87.43h0V376h1.64l35.52-60.66a320.67,320.67,0,0,1,24.59,29.51c0-.54.55-.54.55-1.09C785.82,345.92,785.28,346.46,784.73,347ZM822.44,457.4c-4.37-1.64,3.82-3.28,0,0Zm-9.29-3.28c.54-4.92,6.56,1.09,0,0Zm0,7.1c-3.83,3.28,3.28-3.82,0,0Zm-4.92-10.38c-.55-.55-1.09,3.28-1.09,3.28C805.5,454.66,805.5,448.11,808.23,450.84Zm-1.09,6.56c0,1.09-2.19,1.09-3.28,1.09C802.77,455.21,806,456.85,807.14,457.4Zm0-8.75c-3.83-1.64,4.37-3.28,0,0Zm-12.57,6.56h2.18C797.85,461.22,790.74,457.4,794.57,455.21Zm-1.09-5.47c-4.38-2.18,3.82-3.82,0,0Zm-10.39,1.1c-3.28-.55,1.1-4.92,0,0Zm-4.92-1.1c4.38,3.28-3.27,3.83,0,0Zm-8.74,7.66h2.19v2.18h-2.19Zm0-9.84c2.73,6-2.19-4.92,0,0Zm-8.2,12.57c-.54,1.64-2.73,1.09-4.37,1.09C755.77,456.85,760.14,459,761.23,460.13Zm-10.38,2.18c-3.82-1.64,1.09-6,0,0Zm-4.92-4.91c-3.82-1.64,4.92-2.74,0,0Zm-4.37-7.66v2.19c-1.09,0-1.09.55-1.09,1.09C738.28,453.57,738.83,447.56,741.56,449.74Zm-4.37-1.09v-2.18h2.18v2.18ZM730.08,459v3.28C727.35,462.31,724.07,457.94,730.08,459Zm-9.29-8.19c-3.27-.55,1.1-4.92,0,0Zm-8.19,0c3.82-4.37,3.82,3.28,0,0Zm-9.29-6h-1.1C703.31,444.83,708.77,445.92,703.31,444.83Zm-18,17.48c-1.64-1.09-3.82-1.64-3.27-4.37C684.73,457.4,684.73,460.13,685.27,462.31ZM647,532.81c.55-1.09-.55,0,0,0Zm1.09-7.11c3.83,2.74-3.82,4.38,0,0Zm3.28,21.86c0,.55,1.1-.54,0,0Zm14.21,4.37c-2.18-1.09-3.82-2.18-3.28-6C665.05,546.47,665.6,549.2,665.6,551.93Zm-3.82-18c2.18-.55,2.18,1.64,2.18,3.28A3.7,3.7,0,0,1,661.78,533.9ZM653,494.56c-3.82-1.64,1.1-6,0,0Zm5.47-30.06c-1.1,0-2.19,0-2.19,1.09-1.09,0-.55-1.09,0-1.09.55-2.19-1.09-2.19-2.18-2.19a5.9,5.9,0,0,0,1.09-3.28C657.4,459.58,658,461.77,658.5,464.5ZM659.59,453c3.83,2.74-3.83,4.92,0,0Zm-1.09,25.14c-3.28,0,1.09-4.37,0,0ZM660.68,459c2.19.55,2.74,2.19,2.19,4.38C661.78,462.86,661.23,461.22,660.68,459Zm2.19,15.31a1.88,1.88,0,0,0-.55,1.09h0a.54.54,0,0,1-.54.55,1.93,1.93,0,0,0,.54-1.1C662.32,475.43,662.87,474.88,662.87,474.34Zm7.1-19.13v-4.37C674.34,449.2,675.44,457.4,670,455.21Zm8.2-28.42c-4.37-3.28,3.83-2.18,0,0Zm4.37,15.85v3.28c-2.73.55-1.64-2.19-3.28-2.19C679.26,442.64,681.45,442.64,682.54,442.64Zm-3.28-12.57c.55-5.46,7.11,1.09,0,0Zm4.92,3.28c-3.82-1.64,4.37-2.73,0,0Zm5.47-25.14c-4.38-2.73,3.82-1.64,0,0Zm3.27-4.92c-3.27,0,1.1-4.37,0,0Zm2.74,17.49v3.28h-2.19C692.92,421.87,693.47,420.78,695.66,420.78ZM697.84,400c-2.73-3.83,3.83,2.73,0,0Zm5.47,10.38c-3.28,0,1.09-4.92,0,0ZM707.13,400v2.18c-1.09,0-1.09.55-1.09,1.09C703.31,403.84,704.4,398.38,707.13,400Zm5.47-12.57c1.09.54.54,2.18,2.18,2.18-.54,2.19-3.28,3.28-6,3.28C708.77,389.63,712.6,390.18,712.6,387.45Zm-2.73-24.59a3.31,3.31,0,0,1,2.18.54h-1.64A.53.53,0,0,0,709.87,362.86Zm3.82,21.31c-3.28-.55,1.09-4.92,0,0Zm4.92-22.41c-4.37-2.73,3.82-1.64,0,0Zm0,18.58c-3.83,0,1.09-4.92,0,0Zm-1.09-5.46v2.18h-2.19v-2.18Zm14.75-26.78c-3.28-1.09,1.09-6,0,0Zm7.1-14.75h-6C734.46,330.61,739.92,327.88,739.37,333.35Zm-2.18-17.49c3.28,1.09,1.09,1.64,1.09,4.37C735.55,320.23,735.55,317.5,737.19,315.86Zm8.74-14.76c-3.28-.54,1.1-4.91,0,0Zm1.64,29.51v2.19h-2.18v-2.19Zm-2.73-6.55c-3.28-.55,1.09-4.92,0,0Zm6,1.09c-3.82-1.64,4.37-2.73,0,0Zm3.28-3.28c-3.28-.55,1.09-4.92,0,0ZM755.22,288c-3.28,0,1.1-4.37,0,0Zm4.92,10.38c0-2.18,1.64-2.18,1.09-4.37C763.42,293.45,763.42,300.56,760.14,298.37Zm1.09,6c-3.82-1.64,4.38-2.73,0,0Zm-1.09,7.11c-3.82-.55,1.09-4.92,0,0ZM759.05,288c-3.28-1.64-2.19-4.92-1.1-8.2C760.14,280.89,758,285.8,759.05,288Zm12.57,38.25c-3.83-1.64,4.37-2.73,0,0Zm-8.2-10.38c-2.73.55-2.19-1.64-2.19-3.28A3.14,3.14,0,0,1,763.42,315.86Zm-1.09-25.14v-7.1c2.73-.55-.55,5.46,3.28,3.28C764.51,288,765.61,291.27,762.33,290.72Zm3.28,12.57c-3.28-.55,1.09-4.92,0,0ZM767.79,265c-2.73-3.83,4.37,2.73,0,0Zm17.49-9.29c-3.28,0,1.09-4.37,0,0Zm3.28-2.19c-3.28,0,1.09-4.92,0,0Zm7.1-4.37c-2.73-3.83,3.83,2.73,0,0ZM793.48,235V232.8h2.18V235ZM796.75,218h-2.18v-2.18h2.18Zm-5.46-10.38c-3.83-.55,1.09-4.92,0,0Zm-6,3.28c-2.73-3.83,3.82,2.73,0,0Zm-5.47,7.1c-4.91-2.73,3.83-1.64,0,0ZM776,221.32c-1.64.55-2.19-1.09-3.28-1.09C772.16,218,778.17,218.59,776,221.32Zm-11.48,2.19v2.18c-1.09,0-2.18,0-2.18,1.09C760.69,227.33,762.33,220.23,764.51,223.51Zm-15.85,18.58c2.19.54,3.28,2.18,4.38,3.27C751.94,248.64,747,245.91,748.66,242.09Zm-4.91,6c6-3.28-4.38,2.18,0,0Zm-4.38,6.55c3.83,2.74-4.37,4.92,0,0Zm-12.56,8.2H729V265h-2.18Zm68.3-48.09-46.45,79.79c-2.73-2.74-5.46-4.92-8.74-7.65-.55,0-.55,0-1.09-.55-3.28-2.73-7.11-6-10.38-8.74-.55.54-1.1,3.28-1.1,3.28-1.64,0-1.64-3.83,0-3.83-1.09-1.09-2.18-1.64-3.28-2.73Zm-74.32,43.72c1.1-4.92,6,0,0,0Zm-8.19,22.95c-4.37-2.73,3.82-1.64,0,0Zm-1.1-17.49c-3.27,0,1.1-4.91,0,0Zm-8.19-1.09h3.28a5.83,5.83,0,0,0-1.1,3.28c-1.09,0-1.09-1.09-2.18-1.09ZM706,276.51c-2.73.55-1.64-2.18-3.28-2.18C702.21,272.14,706.59,274.33,706,276.51Zm-2.73-5.46h-4.37C701.12,270.5,704.4,264.49,703.31,271.05Zm-4.37,15.85c-3.28,0,1.09-4.38,0,0Zm-7.11-33.34c1.64.55,2.19,2.73,2.19,4.37h-3.28C690.74,256.29,692.38,255.75,691.83,253.56Zm-10.38-4.37h2.18v2.19h-2.18Zm-13.66-4.92c4.37,3.28.54,7.11,0,0Zm-3.28-4.37c-3.28-3.83,3.28,3.28,0,0Zm-39.35-10.38c-3.28-.55,1.1-4.92,0,0Zm-47.54-15.3c-3.83-1.64,4.92-2.74,0,0Zm-6.56,1.64c1.64,0,2.19,1.64,2.19,3.27,6,1.1,12.57,2.19,18.58,3.28.54-.54,1.09-1.09,1.09,0,.55,0,1.64.55,2.19.55.54-.55,1.09-.55,1.09,0,2.19.55,4.92,1.09,7.1,1.64.55-1.09,1.64-1.09,2.74,0v1.09c12,3.28,23.49,6.56,35,10.93.55-3.28,4.37-2.73,2.19.55h-.55A282.34,282.34,0,0,1,687.46,259c.55-.55,1.64,0,1.64,1.09,4.37,2.73,8.2,4.92,12.57,7.65l-27.87,23.5a.54.54,0,0,1-.55.55l-31.69,26.77v1.64a1.93,1.93,0,0,1-1.1-.54l-16.94,14.75h0l-31.15,26.23v1.64l3.83,20.77,62.84-53c0-.55,1.1-1.64,1.1-1.09l22.4-18.58a7,7,0,0,1-.54-3.28c1.09.54,1.63,1.09,1.63,2.18l6.56-5.46c0-.55-.54-.55-.54-1.1.54-1.63,1.64-1.09,2.18,0l26.23-22.4a257.28,257.28,0,0,1,26.23,22.4L705.49,370c.55,1.09,0,2.19,0,3.83-1.09-.55-1.64,0-2.18,0l-29,49.72h0l-36.61,62.85a113.56,113.56,0,0,0-12-20.77h10.38c0-2.18,2.73-4.37,3.28-4.92,2.19,1.1,0,3.28-1.09,4.92h7.1l4.92-8.74c-2.19-1.64,1.09-4.37.55-1.09l5.46-9.84H636.64c1.09,1.09,2.18,2.19,0,.55a.54.54,0,0,0-.55-.55H607.68c-.55-.55-1.64-1.09-2.19-2.19v.55c-1.09,0-1.64-.55-1.09-1.64-1.64-1.09-2.74-2.18-4.38-3.28l-4.37-26.23a1,1,0,0,1,0-1.64l-3.82-20.76c-1.64,0-2.19,1.64-3.28,4.37-3.28-1.64,1.09-4.92,0-8.2a12.07,12.07,0,0,1,2.73,1.64l-1.64-10.93c-1.64.55-4.37-1.64-4.37,1.64-2.73-.55-1.09-7.1,0-8.2a9.85,9.85,0,0,1,3.83,2.74l-1.1-6a5.52,5.52,0,0,0-2.73,2.19c-1.09-1.09,0-3.82,2.19-6l-3.28-18.58h0l-6.56-36.61c-1.09,0-1.64.54-1.64,1.09-1.09,2.73-1.09-3.28,1.09-4.92l-4.92-28.42c-.54-.54-1.09-1.09-.54-2.18l-3.28-17.49c-1.64,0-2.19,2.73-5.47,2.19v-7.11c2.19,4.37,3.83,2.74,5.47,3.28l-1.64-8.2a1,1,0,0,1,0-1.63l-4.37-26.78c2.73.54,4.92.54,7.65,1.09C570,217.49,570,216.4,571.06,215.86Zm123.5,71c-.54,1.09-2.18.54-2.18,2.18-1.09,0-1.09-2.18-1.09-3.28C692.92,285.8,692.92,286.9,694.56,286.9Zm-27.87,17.48c1.64-1.64,3.83-2.18,7.11-2.18v4.37C671.07,306,670.52,303.84,666.69,304.38ZM670,317c-3.28,0,1.1-4.92,0,0Zm-3.28-15.85c-3.82-1.63,1.1-6.55,0,0Zm-7.1,11.48c-.55-1.64,1.09-2.18,1.09-3.28C662.87,308.76,662.32,314.22,659.59,312.58Zm-13.66,6.56c-3.83-1.64,4.37-2.73,0,0Zm-24,41.53c-3.82-1.09,1.1-6,0,0Zm-3.82-5.46c-3.28-1.64,1.64-6,0,0Zm-3.28-10.39c-3.28-.54,1.09-4.92,0,0Zm-1.09,12.57c-3.28,0,1.09-4.92,0,0Zm-4.92-2.18c0,1.63-3.28.54-3.28,2.18-2.19-1.09,0-2.18,0-3.28A7.74,7.74,0,0,0,608.77,355.21ZM601.12,370c-2.73-3.83,3.82,2.73,0,0ZM600,364.5h0Zm25.14,87.43c3.28-4.37,3.83,3.28,0,0Zm8.2,2.19c-3.83-1.1,1.09-6,0,0Zm12.57-4.38c-3.28-.54,1.09-4.91,0,0Zm2.18,5.47c-3.27,0,1.1-4.37,0,0Zm-76-93.45H570c0-1.09-.55-1.09-1.09-1.09,2.18-1.09,3.27-2.73,6-3.28C576,361.22,570.52,358.48,572.15,361.76Zm2.19,19.68c-3.28,0,1.09-4.38,0,0Zm-7.1-117.5c0,8.2-6.56,1.64,0,0Zm-1.1,32.25c-3.28,0,1.1-4.92,0,0ZM564,260.67c-3.83-1.64,4.37-2.74,0,0Zm0,36.61c3.28-1.09,2.18,2.19,4.37,2.19C569.42,301.1,562.86,300,564,297.28Zm7.1,31.15h-2.18v-2.19h2.18ZM572.15,341c-4.37-2.74,3.83-1.64,0,0ZM570,298.37c-3.83,0,1.09-4.37,0,0Zm4.37,56.84c-3.28-.55,1.09-4.92,0,0Zm0-3.83c-3.82-1.64,3.83-3.28,0,0ZM562.86,230.61c-3.27-1.64,1.1-6,0,0ZM561.77,241c2.19,0,2.19-1.64,4.37-1.09-2.18,4.37-2.73,4.92-3.28,9.29C560.13,248.64,562.32,243.18,561.77,241Zm0,14.76c-.54,1.64-2.18,1.64-2.18,3.28C556.31,259,559.59,255.2,561.77,255.75Zm-2.18,7.1c-3.83,0,1.09-4.92,0,0Zm-2.19-11.47h2.19v2.18H557.4Zm-1.64-6c-3.82-4.92,3.28-4.38,0,0Zm0,14.2c-3.28-.54,1.09-4.92,0,0Zm-2.19,14.76c-2.73-3.83,3.83,2.73,0,0ZM551.39,218c0-2.73,1.64-3.82,2.18-6C557.4,212.58,555.21,218,551.39,218Zm0-4.92v2.19H549.2v-2.19Zm-2.19-20.76v-2.19h2.19v2.19Zm2.19,45.35c-2.19-3.27,4.92,4.92,1.09,7.11C548.66,243.73,552.48,241.54,551.39,237.71Zm2.18-69.4c-.54,3.28-.54,2.19,0,6C550.3,176,550.3,166.67,553.57,168.31Zm-3.27,4.92v3.28h-2.19C547.56,174.32,548.11,172.68,550.3,173.23Zm-4.92-20.76h2.18C549.2,157.93,541.55,154.1,545.38,152.47Zm-6.56,36.61c1.09-4.92,6,0,0,0Zm0-15.85c-3.83-.55,1.09-4.92,0,0ZM541,193.45c-2.74-3.82,3.82,3.28,0,0Zm3.27-30.6c-2.18,7.1-8.19,1.09,0,0ZM541,116.4c1.64,1.64,2.18,3.82,2.18,7.1C539.37,124.6,541.55,119.13,541,116.4Zm1.09,30c2.18,2.19-1.64,7.65-4.37,8.2-1.1-2.73,3.82-6-1.1-6C535.54,142.63,541.55,150.83,542.1,146.45Zm-5.47,36.07h.55v3.28h0L541,208.21c-4.92,0-10.39-.55-15.31-.55,3.28,2.73-1.09,7.1,0,0h-6a4.2,4.2,0,0,1,2.19,1.09c-.55,2.19-2.19,2.73-4.37,2.19a2.45,2.45,0,0,1,2.18-3.28H509.31l15.85-91.26Zm-29,15.85c2.19.55,2.73,2.18,2.19,4.37C506.58,203.83,507.67,200.55,507.67,198.37Zm1.09,12.57c-3.27,0,1.1-4.92,0,0Zm10.39-86.34c-3.28,0,1.09-4.92,0,0Zm-1.1-8.2c2.19-.55,3.28.54,4.38,1.09C522.43,120.77,517,120.22,518.05,116.4Zm0,27.87c-2.73-.55-2.73-3.28-1.09-4.37C518.6,139.9,517.51,142.63,518.05,144.27Zm8.2-40.44c-3.82-1.64,1.09-6,0,0Zm2.19,10.38c1.64.55,2.73,1.64,4.37,2.19-1.64,3.28-3.28,1.64-6,1.09C527.89,116.94,528.44,115.85,528.44,114.21Zm-1.1-8.19c-.54-1.64,1.1-2.19,1.1-3.28C530.62,102.19,530.08,107.65,527.34,106Zm5.47,17.48c.55,3.28-2.19,2.73-4.37,3.28V123.5Zm0-11.47c.55-4.92,6.56,1.09,0,0ZM535,95.63v3.28c-1.63,0-3.27,0-3.27,1.09-1.64,2.19-.55-3.27,0-4.37ZM530.62,53c-3.82-1.64,3.83-3.28,0,0Zm0,13.66c1.64,1.09-4.92-2.73,0,0Zm-3.28-10.38c-3.82-1.64,4.38-2.74,0,0Zm-1.09-16.94c2.19-.55,2.19,6.55-1.09,4.37A8.56,8.56,0,0,0,526.25,39.35Zm-2.73,57.38c-2.73-3.83,3.82,2.73,0,0Zm0,18.58c-3.28,0,1.09-4.92,0,0Zm-4.37-14.76q4.1,1.64,3.28,8.2C519.69,107.11,519.69,103.83,519.15,100.55Zm2.18-13.11c2.74,3.27-3.28,7.1,0,0Zm-3.28-6.56c-4.91-1.64,2.19-4.37,0-10.39C522.43,71,518.6,77.6,518.05,80.88Zm0-17.49a3,3,0,0,1-2.18-3.28C518.05,59.57,518.05,61.75,518.05,63.39Zm-2.18,103.83c-3.83,0,1.09-4.92,0,0ZM512,110.93c-3.28-1.64,1.64-6.55,0,0Zm1.1,15.85c0,1.09-2.19,1.09-3.28,1.09C509.31,124.05,512,126.23,513.14,126.78ZM511,144.27c-1.64-.55-2.19-2.73-2.19-4.37C512,138.26,511,142.08,511,144.27Zm-1.09,1.09c2.18-.55,1.64,5.47-1.1,3.28C508.22,147,509.86,147,509.86,145.36Zm2.18,8.2c6,1.09-4.92,10.38-4.37,2.18C511,156.84,511,156.29,512,153.56Zm-2.18,18H512v2.19h-2.18Zm0-1.09c-3.83-1.64,4.37-2.73,0,0ZM512,183.61c.55,5.47-2.73.55-3.28,6a5.82,5.82,0,0,0-3.27-1.1C508.22,186.89,507.67,182.52,512,183.61Zm-8.19-40.43c-3.28-.55,1.09-4.92,0,0Zm1.64,31.14c0,1.1-2.19,1.1-3.28,1.1C501.11,171.59,504.39,173.23,505.49,174.32Zm-7.11,2.19c2.19-.55,2.19,6.56-1.09,4.37C497.29,179.24,498.38,178.7,498.38,176.51Zm1.09,44.81c3.83.55,1.1,4.92-2.18,4.37C497.29,223.51,500.57,224.6,499.47,221.32Zm1.1,33.34c-2.74.54-2.19-1.64-2.19-3.28A3,3,0,0,1,500.57,254.66Zm-4.37-16.95c2.73-.54,1.09,3.28,3.27,3.28-.54,1.64-2.73,2.19-4.37,2.19A11.69,11.69,0,0,0,496.2,237.71Zm-4.92-30.05c7.1,3.28,0,7.1,2.18,12.57-.54,2.18-2.73-3.83-3.28-6h3.28A45.82,45.82,0,0,1,491.28,207.66Zm2.18,73.77c-2.73,0-.54-3.82-1.09-6C495.1,275.42,492.92,279.79,493.46,281.43ZM479.8,302.2c-.55-2.19,5.47-1.64,3.28,1.09C481.44,303.29,481.44,302.2,479.8,302.2ZM482,318.05c-3.28,0,1.09-4.38,0,0Zm1.64,27.87c2.73-3.83,2.73,6,0,0Zm1.09-56.29c-.55-1.64,1.09-2.19,1.09-3.28C488,285.26,487.45,291.27,484.72,289.63Zm4.37,12.57c-3.82-2.19,3.83-3.83,0,0Zm-1.64-10.93h0c.55.55.55.55,1.09.55l.55.54h0a.54.54,0,0,1,.55.55h0l-.55-.55h0l-.55-.54A1.92,1.92,0,0,1,487.45,291.27Zm3.83-19.13c0,2.73,0,5.47-1.1,7.11C486.91,279.25,488,272.14,491.28,272.14Zm-1.1-7.1c-2.18-.55-.54-4.92-3.27-4.37-2.74-2.74,2.18.54,4.37,0C491.82,262.85,490.73,263.4,490.18,265Zm0,40.44c1.1,3.82-2.73,2.18-3.27,4.37C484.17,308.76,488,304.93,490.18,305.48Zm1.1,7.1c-3.28-1.64,1.64-6,0,0ZM489.09,247c3.28,2.19-1.09,7.11,0,0Zm-8.2-29c-3.82-1.64,4.92-2.73,0,0Zm-7.65,0c-3.82-1.64,4.38-2.73,0,0Zm-13.11,0c-3.28-.54,1.09-4.92,0,0Zm-9.29,3.28c-3.28,0,1.09-4.92,0,0Zm-16.94,2.19c3.82,2.73-4.37,4.91,0,0ZM387.45,239.9c.54,2.19-.55,3.28-1.1,4.37-2.18-4.37-3.27-.54-7.1,0C379.25,239.9,385.26,241.54,387.45,239.9ZM376,247v2.19c-1.09,0-1.09.55-1.09,1.09C372.69,250.83,373.24,244.82,376,247Zm-14.75,8.75c2.73-3.83,2.73,6,0,0Zm42.08-16.4c-1.64-1.64,3.27-6,4.91-3.28v1.1c2.19-1.1,4.38-1.64,7.11-2.73,0-.55-.55-.55-1.1-.55.55-1.64,2.19-1.09,2.74,0,.54,0,1.09-.55,1.64-.55,0-.54.54-.54.54,0,6.56-2.18,13.66-4.37,20.77-6.56-1.09-1.63,0-8.74,3.82-7.65-2.18,1.64-2.18,4.92-3.27,7.65,1.09-.54,2.73-.54,3.82-1.09a9,9,0,0,0,.55-5.46c1.09.54,1.64,2.73,1.09,4.92a347.44,347.44,0,0,1,41.53-7.66l-4.92,29V247l-3.28,19.68h.55c0,2.18,0,3.28-1.09,4.37L467.78,335c.55.54,1.09,1.09,1.64,1.09,0,1.09-1.09,1.09-1.09,2.18-.55,0-.55-.54-1.1-.54l-.54,2.18c0,.55.54,1.1.54,2.19a.53.53,0,0,1-.54-.55l-3.28,18h2.73c0,.54-.55,1.09-1.09,1.64l3.28,2.73h3.27c-.54.55-.54,1.09-1.09,2.18l9.84,8.2,1.09-4.92c-1.64-1.09,0-3.28.55-2.73l.54-3.82c-2.18,1.64-4.91-1.64-6.55,5.46-4.92-4.92-1.1-3.28,0-9.29,2.73-1.64,4.37,2.73,4.37,0,2.73-.55-2.73,3.83,1.64,3.28l1.09-6c-.55-1.64-.55-3.28.55-4.37h0l21.86-126.24c-.55-2.18,0-2.73.54-2.73l1.09-7.1h.55a11.25,11.25,0,0,1,2.19-3.28c1.64,1.09,1.64,2.18,1.09,3.28,4.37,0,8.74-.55,13.66-.55h7.11c.54-.55,1.64-1.64,1.64,0h8.19l1.1,6,.54-.55c1.09,0,1.09,2.19,1.09,3.28a2,2,0,0,1-1.63-.54l7.65,42.62c1.64,0,2.73.55,2.18,2.73h-1.64L554.12,288c1.09,1.09.55,1.64.55,2.19l2.73,14.2c0-.54.55-1.09,0-1.64,1.09,1.64,3.28,8.75,3.28,1.1,1.64.54,1.09,2.73,1.09,4.37H558l1.09,6.56c1.09,0,2.73.54.55,1.64H559l1.64,9.83c1.64-2.73,6,6.56,1.09,6.56l15.85,90.71a92.19,92.19,0,0,0-10.93-4.37l-.55.55c-.54,0-.54-.55-1.09-.55l-9.84-3.28L570,403.29l-3.83-22.4L529,412h-9.83l-43.72-37.16v2.18h-2.19c-.54-1.64,0-2.73,1.1-3.27l-9.29-7.66c-.55,2.74-4.92,4.38-5.47-.54,2.73,1.09,3.28,1.09,3.83-.55l-8.2-6.56a5.85,5.85,0,0,1,.55,4.38c-4.92,1.64-2.19-4.92-4.38-6l1.1-1.09-4.37-3.82c-1.1,0-1.1-.55-1.1-1.1l-20.76-17.48h-1.1v-1.1l-16.94-14.2c0,1.63-.54,3.27-2.18,3.82h0a22.85,22.85,0,0,1,.54-5.46l-7.1-6c-.55,0-.55.55-.55,1.1-1.09-.55-1.09-1.1-.54-2.19l-9.29-8.2c.54,1.64.54,3.28-1.64,4.38-2.73,0,0-4.92-1.1-6.56h0l-3.27-2.73h0l-32.79-27.33A252.16,252.16,0,0,1,403.3,239.35Zm73.22,62.85c-3.28,4.37-2.73-7.11,1.1-6C479.8,300,472.15,300,476.52,302.2Zm-2.18,4.37c-3.83,0,1.09-4.92,0,0Zm2.18,31.15c.55,2.73-2.18,1.64-2.18,3.28C472.15,341.54,474.34,336.63,476.52,337.72Zm-1.09-5.47c1.09-1.64,1.64-3.82,4.37-3.28C480.35,331.71,477.62,331.71,475.43,332.25Zm2.19-21.86a3,3,0,0,1,2.18,3.28A3.68,3.68,0,0,1,477.62,310.39Zm88.52,76c2.74,0,.55,3.83,0,4.38C562.86,390.18,567.24,388.54,566.14,386.35Zm0,11.48c-.54,0-.54-.55-1.09-.55C566.14,397.83,567.24,397.83,566.14,397.83Zm0,6.56c-3.28,0,1.1-4.37,0,0Zm-73.22-6.56Zm-1.64,11.48c3.82,2.73-1.1,7.1,0,0Zm1.09-14.76v.55h0Zm-3.28,1.09c-3.28-1.64,1.09-6.55,0,0Zm-3.28-4.91c1.1-4.92,6,0,0,0ZM482,395.64c-3.28,2.74,3.28-3.82,0,0Zm-3.28-3.82a3,3,0,0,1-2.19-3.28A3.69,3.69,0,0,1,478.71,391.82Zm-4.37,1.09c-2.19.55-2.19-1.64-2.19-3.28A3.7,3.7,0,0,1,474.34,392.91Zm-7.11-10.38c-.54-1.64,1.1-2.19,1.1-3.28C470.51,378.7,470,384.71,467.23,382.53ZM464,372.15c-3.82-1.64,4.38-2.74,0,0Zm1.1,9.29c-1.64-1.1-1.64-3.83-2.19-6C465.05,376,465.05,378.7,465.05,381.44Zm-6-14.76c-3.28-1.64,1.63-6,0,0Zm0,7.11v4.37C454.66,378.7,455.21,373.24,459,373.79Zm-6.56-1.64c-3.83,0,1.09-4.38,0,0Zm-7.11,0c-1.09-3.83,3.83-1.64,3.28-4.38C450.84,367.77,448.11,373.24,445.37,372.15Zm0-19.13v2.19c-1.09-1.1-2.73-1.1-4.37-1.1C440.46,349.74,445.37,352.47,445.37,353Zm-7.1-6c-3.28,0,1.09-4.92,0,0Zm0,8.2c-3.28-.55,1.09-4.92,0,0Zm-15.85-19.68c2.73.55,1.64,6.56-2.18,4.37C418.6,336.63,421.88,337.17,422.42,335.53Zm-2.18-2.18v-2.19h2.18v2.19Zm6.55,15.84c0,2.19-2.18,2.74-4.37,2.19C423,350.29,424.61,349.74,426.79,349.19Zm-1.09-6.55c2.19-3.83,6,6.55,8.2,0,3.82,2.73-2.19,5.46-3.28,7.1C428.43,347.56,428.43,343.73,425.7,342.64Zm2.19-3.83a6.68,6.68,0,0,1,1.09-1.64C429,337.72,426.25,341.54,427.89,338.81Zm-13.67,3.83c1.1-1.1.55-4.37,3.28-3.28C418.05,341.54,417,342.64,414.22,342.64Zm2.19,6.55c-4.37-3.27,3.83-3.82,0,0Zm-1.09-19.67c1.64-3.28,5.46,2.19,2.18,3.28C415.86,332.8,417.5,329.52,415.32,329.52ZM413.13,347c-2.18-2.19-4.92-4.92-1.09-7.11,1.09,0,.55,1.1,0,1.1C411,344.28,413.68,344.28,413.13,347Zm-3.28-11.48c1.1-3.82,0-2.73,0-7.1C413.68,326.79,415.32,337.72,409.85,335.53Zm-9.29-3.28c1.64-3.28,4.92-3.82,7.11-1.09C405.48,332.25,401.66,333.35,400.56,332.25Zm4.37,4.38c-3.27-3.28,3.83,3.27,0,0Zm-8.19-10.39c-.55-3.82,2.18-1.64,3.28-1.09C400,326.24,398.38,326.24,396.74,326.24Zm9.29,2.19v-2.19h2.18v2.19Zm-11.48-14.76c-3.28-.54,1.09-4.91,0,0ZM389.09,317v3.28H386.9C386.35,318.05,386.9,317,389.09,317ZM382,300c1.1,0,1.1.55,1.1,1.1v2.18c-2.19-2.18-1.64,0-4.38,0C378.7,301.11,382.53,302.2,382,300Zm-2.18,0c-3.83-.54,1.09-4.92,0,0Zm-7.11,6.56c3.28-.55,4.92.55,4.37,3.28h-4.37Zm1.1-6.56a7.16,7.16,0,0,1-1.1,6C371.05,305.48,370.51,297.83,373.79,300Zm1.09-7.1c4.37,3.28-3.28,3.82,0,0ZM365.59,288c-2.19-.55-2.73-2.19-2.19-4.37C365,284.16,365.59,286.35,365.59,288ZM353,283.62c-3.28-1.09,1.09-3.28,1.09-4.37C357.94,280.34,353,282,353,283.62Zm-14.75-21.86Zm1.09,3.28c-3.28,0,1.09-4.37,0,0Zm-9.29-11.48Zm-4.37,6c2.18-.54,2.18,6.56-1.1,4.38C324.06,261.76,325.15,261.21,325.7,259.57Zm-3.83-7.1c-.55.55,1.09-.55,0,0Zm-4.37-9.29c2.73-3.83,2.73,6,0,0Zm2.19,13.66a5.83,5.83,0,0,0-1.1,3.28c-1.09,0-1.09-1.09-2.18-1.09v-2.19Zm-3.28-8.74c.54-1.1-.55.54,0,0Zm-1.1-6Zm-4.91,7.1Zm-1.1-12.57c-.54,0,.55-1.09,0,0Zm-6-4.92h2.19v2.19h-2.19Zm1.64,4.92c-.55,0,.55-1.09,0,0Zm-8.2,3.28c3.28,0,2.19,7.1-2.18,6C295.09,243.18,296.73,242.63,296.73,239.9Zm-6-9.29c-.54.55,1.1-.55,0,0Zm-1.09-6c-.55.55,1.09-.55,0,0ZM276,217a3,3,0,0,1-2.19-3.28C276,212.58,276,214.76,276,217Zm-15.3-3.83c-3.28,0,1.09-4.37,0,0Zm10.38,14.76v-1.64a3.27,3.27,0,0,1,1.64,3.28l52.46,44.26c0-1.09,2.19-2.18,1.09,1.09h0c-8.19,6.56-16.39,13.12-24,20.22l-9.84-16.94c-1.09,1.1-2.73.55-1.09-1.64l-6-9.83c-1.1,1.64-.55,1.09,0,0l-29.51-51.37Zm33.88,77.6c-4.92-1.1,0-4.92-1.09-9.29C308.21,297.28,303.29,301.11,304.93,305.48ZM306,326.24c-4.91-2.73,3.83-1.64,0,0Zm-4.91-14.75c3.27-4.37,2.73,5.46,0,0Zm0-14.21c-3.28-1.09,1.63-6,0,0Zm-2.19-4.37c-.55.54.55-1.09,0,0Zm-1.09,26.23c-.55.55.54-.55,0,0ZM294.55,294c.54,2.19-.55,3.28-1.1,4.37C291.27,298.92,291.27,292.36,294.55,294Zm-3.83-3.28v-2.18h2.19v2.18Zm-30.05-54.1Zm1.64,0c1.09,0,.54,1.09,0,1.09,0,1.1,1.09,1.1,1.09,2.19C262.31,242.63,260.12,237.17,262.31,236.62Zm0,11.48a3,3,0,0,1,2.18,3.28C262.85,250.83,261.76,249.74,262.31,248.1Zm6.55-7.11c7.11,1.1-.54,9.84,0,0Zm3.83,15.85a3,3,0,0,1,2.18,3.28C273.24,260.12,272.14,259,272.69,256.84Zm6.56,30.06c-3.28,0,1.09-4.37,0,0Zm2.18-4.37a3,3,0,0,1,2.19,3.27A3.13,3.13,0,0,1,281.43,282.53ZM284.16,294Zm4.38-18.58c-.55,3.83-3.28,3.83-1.1,8.2C282,283.07,284.71,276,288.54,275.42Zm-3.28,21.86c-.55-3.83,2.18-1.64,3.28-1.09C288.54,297.83,286.35,297.28,285.26,297.28ZM267.77,339.9c-3.28,0,1.09-4.37,0,0ZM259.57,353c-.54,0,1.1-1.09,0,0Zm-5.46,3.28c-.55.55.55-1.09,0,0Zm-2.19,7.1c.55,4.37-3.82,3.83-4.37,1.1C247.55,362.86,249.74,363.4,251.92,363.4ZM247,370c-.54.55,1.1-.55,0,0Zm-4.37,15.3c1.64-2.73,2.74-5.46,4.37-8.2-.54.55-1.09.55-1.09,1.1-2.73,2.73.55-4.37,2.19-4.37a.53.53,0,0,1,.54.54c7.65-13.66,16.94-26.23,26.78-38.8-2.73-1.64,1.09-4.92.55-.54a173.43,173.43,0,0,1,16.39-18.58l39.35,67.76c1.09-1.09,2.73-1.64,3.28-2.19.54,2.73-.55,3.83-1.64,4.37l5.46,9.29a1.7,1.7,0,0,1,.55,1.1l10.38,18.58c.55-1.64,3.28-.55,3.28-2.74,1.64.55,2.19,2.74,2.19,4.38-2.74.54-2.74-1.64-5.47-1.1l1.64,2.74a.54.54,0,0,1,.55.54l10.38,17.49c.55-1.09,2.19-1.64,1.09,1.09h-.54l1.64,2.73h22.95l-20.77-36.06c-.54,0-1.09-.55-1.64-1.1a.54.54,0,0,1,.55-.54l-3.28-5.47c0,1.64-3.28,4.38-4.37,6C354.66,400,363.4,400,359,395.1a23.7,23.7,0,0,1,2.73.54l-18-31.14c-.55.54-1.64.54-2.73.54v-3.28c1.09,1.1,1.64,1.1,1.64,1.1L340.45,359h-2.18c0-1.09.54-1.64,1.09-1.64l-9.29-15.85h0l-12-20.76h-1.64v-2.19H317l-10.38-17.48c8.2-7.66,16.94-15.31,26.23-22.41L382,320.23v-1.64c1.64,0,2.19,1.64,2.19,3.83l53,44.26V364.5c1.64,1.09,1.64,2.18,1.09,3.27L441,370c.55-1.64,2.19-3.83,1.64-5.46a5.9,5.9,0,0,0,3.28,1.09c-2.19,1.09-2.73,3.82-4.37,5.46l51.91,43.72a156.63,156.63,0,0,0-22.4,8.2l3.28-19.13-6.56-5.46-.55.54c-1.64-.54-1.09-1.64-.54-1.64l-9.84-8.19-8.2,47.54a81.1,81.1,0,0,0-7.65,6.56c.55.54,3.28,3.28.55,1.09-.55-.55-.55-.55-.55-1.09H354.66v2.18c-1.09,0-1.09.55-1.09,1.1-1.64.54-1.64-2.19-1.1-3.28H285.26v3.28h-2.19c-.54-2.19,0-3.28,1.64-3.28H217.5A304.1,304.1,0,0,1,241,386.35C240.45,385.26,242.09,383.08,242.63,385.26ZM309.3,310.4c-2.73-4.38,3.83,2.73,0,0Zm3.28,21.85c-3.28,1.64,2.19-3.82,2.19-6C318.05,327.88,313.67,330.61,312.58,332.25Zm3.83,8.75c.54-.55-.55.54,0,0Zm-3.83,1.64c-.55,0,1.09-1.1,0,0Zm17.49,19.12c0,1.64-4.92,4.92,0,4.38C327.34,371.05,324.06,360.67,330.07,361.76Zm0-5.46c-.55.55.54-1.09,0,0Zm-3.28-13.66c-3.83-.55,1.09-4.92,0,0Zm0,25.13V370H324.6v-2.19Zm-2.73-31.14c-3.83-2.19,3.82-3.83,0,0ZM323,363.4c-3.27-.54,1.1-4.92,0,0Zm8.2,7.65c-3.28-3.28,3.83,3.28,0,0Zm2.19-10.38c.54,1.09,6,4.92,1.09,4.37C335,363.4,333.35,362.86,333.35,360.67Zm8.19,31.15c-3.27,0,1.1-4.37,0,0Zm4.92-10.38c-3.82,0,1.1-4.38,0,0Zm2.19-3.28c-3.83,0,1.09-4.92,0,0ZM353,397.83V400h-2.19v-2.19Zm0-12.57c-3.28-.54,1.09-4.92,0,0Zm-3.28,26.23c1.09-4.92,6,0,0,0ZM362.31,429c-3.28-.55,1.09-4.92,0,0Zm-1.09-12.57c-3.28-1.64,1.09-6.56,0,0Zm-4.37-9.29c1.09-1.09,6.55-3.28,7.1-1.09C364,410.4,360.12,405.48,356.85,407.12Zm7.65,16.94c-.55.55,1.09-.55,0,0Zm1.09-16.94c1.64.55,1.09,2.73,1.09,4.37C364.5,411.49,364.5,408.21,365.59,407.12ZM368.32,423c.55-.55-.55.54,0,0Zm5.47,9.29c-.55.54,1.09-.55,0,0Zm49.72,29c-3.27-.55,1.1-4.92,0,0Zm-13.66,1.09c-4.92-2.73,3.83-1.64,0,0Zm-13.11-2.18c1.09-1.1-.55.54,0,0ZM390.18,453c-3.83,0,1.09-4.91,0,0ZM376,445.92c-.54.55,1.09-.55,0,0Zm-3.28,17.49Zm-2.18-17.49c-.55.55.54-.55,0,0Zm-2.19,2.73V453c-2.18-1.09-4.37-2.73-2.18-4.37Zm-16.39,14.76c-.55-2.19.54-3.28,1.09-4.37C355.21,458.49,355.21,465.05,351.93,463.41ZM349.74,459c-4.37-3.83,3.28-4.38,0,0Zm-4.92-7.11c-4.92-2.18,1.64-3.28-1.09-7.1a5.9,5.9,0,0,0,3.28,1.09C348.1,449.75,344.28,448.11,344.82,451.93Zm.55,10.93c0-.55-.55-1.09-1.09-1.64,0,.55.54.55.54,1.09A.54.54,0,0,1,345.37,462.86Zm-10.93-2.73c0,.54,1.09-1.09,0,0Zm0,3.28c0,.54,1.09-.55,0,0ZM323,447.56c-3.27-.55,1.1-4.92,0,0Zm-4.37,7.65c-.54-2.19.55-3.28,1.1-4.37C323,450.84,322.42,456.3,318.59,455.21Zm-2.18,4.92c-3.83-1.64,4.37-3.28,0,0Zm0-14.21c.54-.55-.55.55,0,0Zm-3.83,11.48c-.55.54,1.09-.55,0,0Zm-1.09,4.91c-3.28,0,1.09-4.91,0,0Zm-16.94-8.19c-.55-1.64,1.09-2.19,1.09-3.28C297.83,450.29,297.28,455.76,294.55,454.12Zm0,4.92c-3.83-.55,1.09-4.92,0,0Zm-4.92-10.39c2.19.55,2.73,2.19,2.19,4.37C288.54,454.12,290.18,450.29,289.63,448.65Zm-5.47,2.19c-.54.54.55-1.09,0,0Zm0,11.47c-.54.55.55-.54,0,0Zm-9.29-4.91Zm-3.82-8.75a3,3,0,0,1-2.19-3.28C271.6,444.28,271.05,446.47,271.05,448.65Zm-5.47-3.82c3.83,2.73-4.37,4.92,0,0Zm-4.91,17.48c-3.83-2.18,1.64-4.91,1.09-8.19C265,455.76,262.31,461.22,260.67,462.31Zm-4.38-12.56c-.54-2.19.55-3.28,1.1-4.38C260.67,445.37,259.57,449.75,256.29,449.75Zm-4.37.54a1.7,1.7,0,0,1,1.1.55C257.39,453.57,252.47,450.29,251.92,450.29Zm-6,3.83c-2.18,2.73,0-2.19,0-3.28,3.28-1.09,2.19,2.18,4.37,2.18C250.28,456.85,246.46,450.29,245.91,454.12Zm3.28,4.92c1.09-1.1-.55,0,0,0Zm-5.46,3.27Zm-1.1-16.39Zm-3.82,9.29c-.55.55,1.09-.55,0,0Zm-6.56-54.1ZM228.42,406c-2.73-3.83,3.83,2.73,0,0Zm-4.37,11.47c-.54.55.55-1.09,0,0Zm-1.09-6Zm-1.09,21.86c-1.1,1.09-.55,4.37-3.28,3.28C219.68,436.08,218.59,432.8,221.87,433.35Zm-4.92,0c-.55,2.73,2.18-7.1,0,0Zm0,29c-.55.55,1.09-.54,0,0Zm-3.83,1.1H270c0-1.1,1.64-2.19,1.64,0H306l118.59.54c-4.37,6.56-8.75,13.12-12,20.77l-7.11-12c-.55,0-1.64.54-1.09,2.18-1.64,0-1.09-2.73,0-3.82l-2.19-3.83H390.73v1.64c-.55,1.64-1.1,0-1.1-1.64h-3.28c.55,2.19-1.63,3.28-1.63,0H379.8l24.59,42.08c-.55,3.28-1.09,6.56-1.64,9.84l-42.63,35.52v2.18a1.17,1.17,0,0,1-1.09-1.09l-9.29,7.65h0L342.09,570a6.33,6.33,0,0,1,1.09,3.82c-2.73,1.1-2.18-1.09-2.18-2.73L231.7,662.32q-2.46-5.73-4.91-11.47h0c-1.64,0-1.64-1.64-.55-2.19-11.48-29.51-18-61.2-20.22-94h0a41.13,41.13,0,0,0-.55-8.2h-.54a8.16,8.16,0,0,1,.54-3.82V530.08h-1.64c-1.09-1.64.55-2.74,1.64-2.74a80.11,80.11,0,0,1,.55-11.47l10.38,3.82c0-1.64.55-3.28,2.19-1.64l-1.09,2.19,42.07,15.3c0-1.09,1.64-1.64,1.1.55l15.3,5.46c0-.54.54-1.09.54-1.64a2.18,2.18,0,0,1,1.1,2.19L341,566.69l17.48-14.75-67.21-24.05v1.64c-1.64,0-1.64-1.64-.55-2.19l-51.91-18.58h0l-30.6-10.93A173.92,173.92,0,0,1,213.12,463.41Zm190.72,22.95c0,2.73-1.64,3.82-2.18,6C397.28,491.28,401.11,486.9,403.84,486.36Zm-2.18-11.48Zm-2.19-2.18c-.55.54.55-.55,0,0Zm-1.64-3.28Zm-1.09,22.95c-3.28-.55,1.09-4.92,0,0ZM204.93,500c0,.55.54,1.09,1.09,1.64l.55.55a.54.54,0,0,0-.55-.55h0C204.93,500.57,204.93,500,204.93,500Zm12,6v3.28h-2.19C214.22,507.12,215.31,506,217,506Zm3.82,8.2c2.19-4.92,7.11,0,0,0Zm1.1,9.29c.54-1.09,2.18-.55,2.18-2.19C227.33,521.33,224.05,524.61,221.87,523.52Zm10.38-7.11c-1.64.55-2.19-1.09-3.28-1.09C228.42,513.14,233.89,513.68,232.25,516.41Zm0,6c-3.83-.55,1.09-4.92,0,0Zm6.56-4.92c2.18-.55,4.37,7.1,0,6C241,521.33,238.26,521.33,238.81,517.51Zm11.47,0c1.1-.55,0,.54,0,0Zm4.92,8.19c1.09,1.1,1.09,2.74,1.09,4.38-2.18.54-2.18-1.1-2.18-2.19a5.83,5.83,0,0,1-3.28,1.09C250.28,526.25,253,526.25,255.2,525.7Zm-4.92,8.2c-3.82-3.82,3.83-3.82,0,0Zm8.2-11.47c-4.37-3.83,3.83-3.83,0,0Zm2.19,1.09v-2.19h2.18v2.19Zm1.64,9.29c-.55,0,.54-1.09,0,0Zm4.37-1.64c2.18.55.54,4.92,3.28,4.37C268.32,539.37,263.4,533.36,266.68,531.17Zm9.29,0c-4.37-2.73,3.82-1.64,0,0Zm30,16.39c-.54.55.55-.54,0,0Zm5.47,0c-3.28-1.09,1.64-6,0,0Zm3.82-6c.55-.54-.54.55,0,0Zm2.19-1.09c-2.73-3.83,3.82,2.73,0,0ZM320.78,558c-2.73-3.83,3.82,2.73,0,0Zm3.28-14.76Zm8.19,6.56c-4.37-2.73,3.83-1.64,0,0ZM343.73,559c-.55.55,1.09-.55,0,0ZM198.92,448.65c-.55.55.54-1.09,0,0Zm-3.83,0c-2.73,0-3.83-1.09-3.28-3.28C194,444.83,195.64,445.92,195.09,448.65Zm-4.37-1.09c-3.83-.55,1.09-4.92,0,0Zm-3.83,0Zm-11.47,9.84c-.55.54,1.09-.55,0,0ZM165,450.84Zm-11.47-3.28c-.55,0,1.09-1.09,0,0Zm-3.28,2.19c.55-1.1-.55.54,0,0Zm-12.57,7.65c-2.73,0-3.82-1.1-3.28-3.28Q137.72,454.12,137.71,457.4Zm-6,2.73c-3.28-.55,1.09-4.92,0,0ZM128.42,453c3.28-4.37,3.83,3.28,0,0Zm1.09,10.39h14.76c.54-.55,1.64-1.64,1.64,0h59.56a27.69,27.69,0,0,0-1.09,6.55.53.53,0,0,1,.55-.54c3.28,2.73,0,3.28-.55,2.18-.55,3.83-1.64,7.65-2.19,11.48,1.1-2.19,3.28,2.19,4.92,2.73-1.64,3.83-2.73-1.64-5.46-1.09a42.15,42.15,0,0,0-1.1,8.74c.55-.54,1.64-.54,1.1,1.64-.55,0-1.1,0-1.1-.54v.54l-5.46-2.18c2.19,2.18-3.83,3.82-.55,0l-9.29-3.28c0,.54.55.54.55,1.09-1.64.55-2.19-.55-2.73-1.64l-34.43-12.57c1.09,1.64-2.19,3.83-2.19,4.92-2.18,2.73,0-3.28,1.1-5.46l-15.85-6q0,3.29-3.28,3.28c0-2.18.55-3.28,2.19-3.28l-4.38-1.63L124.6,470a3.24,3.24,0,0,1-.55-2.18L113.67,464h13.11l1.64-3.28C129.51,460.67,130.06,461.77,129.51,463.41Z" transform="translate(0)"/>
    <path d="M404.39,238.81a1.92,1.92,0,0,0,1.09-.55A1.69,1.69,0,0,1,404.39,238.81Z" transform="translate(0)"/>
    <path d="M562.32,327.34l.54,3.82C562.86,329.52,563.41,327.88,562.32,327.34Z" transform="translate(0)"/>
    <path d="M410.4,770.52l1.64-8.19A13,13,0,0,0,410.4,770.52Z" transform="translate(0)"/>
  </g>
</svg>
